%TF.GenerationSoftware,KiCad,Pcbnew,(5.1.9)-1*%
%TF.CreationDate,2025-04-10T23:46:23-06:00*%
%TF.ProjectId,LEDS,4c454453-2e6b-4696-9361-645f70636258,rev?*%
%TF.SameCoordinates,Original*%
%TF.FileFunction,Copper,L2,Bot*%
%TF.FilePolarity,Positive*%
%FSLAX46Y46*%
G04 Gerber Fmt 4.6, Leading zero omitted, Abs format (unit mm)*
G04 Created by KiCad (PCBNEW (5.1.9)-1) date 2025-04-10 23:46:23*
%MOMM*%
%LPD*%
G01*
G04 APERTURE LIST*
%TA.AperFunction,SMDPad,CuDef*%
%ADD10C,4.000000*%
%TD*%
%TA.AperFunction,ComponentPad*%
%ADD11R,1.800000X1.800000*%
%TD*%
%TA.AperFunction,ComponentPad*%
%ADD12C,1.800000*%
%TD*%
%TA.AperFunction,ComponentPad*%
%ADD13C,0.100000*%
%TD*%
%TA.AperFunction,ViaPad*%
%ADD14C,0.800000*%
%TD*%
%TA.AperFunction,Conductor*%
%ADD15C,0.254000*%
%TD*%
%TA.AperFunction,Conductor*%
%ADD16C,0.100000*%
%TD*%
G04 APERTURE END LIST*
D10*
%TO.P,TP1,1*%
%TO.N,N/C*%
X164592000Y-114808000D03*
%TD*%
%TO.P,TP1,1*%
%TO.N,N/C*%
X164084000Y-104394000D03*
%TD*%
D11*
%TO.P,D1,1*%
%TO.N,Net-(D1-Pad1)*%
X169799000Y-113919000D03*
D12*
%TO.P,D1,2*%
%TO.N,Net-(D1-Pad2)*%
X169799000Y-111379000D03*
%TD*%
%TA.AperFunction,ComponentPad*%
D13*
%TO.P,D2,1*%
%TO.N,Net-(D10-Pad1)*%
G36*
X165265022Y-122702075D02*
G01*
X163992230Y-121429283D01*
X165265022Y-120156491D01*
X166537814Y-121429283D01*
X165265022Y-122702075D01*
G37*
%TD.AperFunction*%
D12*
%TO.P,D2,2*%
%TO.N,Net-(D10-Pad2)*%
X167061073Y-119633232D03*
%TD*%
D11*
%TO.P,D3,1*%
%TO.N,Net-(D11-Pad1)*%
X155321000Y-121793000D03*
D12*
%TO.P,D3,2*%
%TO.N,Net-(D11-Pad2)*%
X157861000Y-121793000D03*
%TD*%
%TO.P,D4,2*%
%TO.N,Net-(D12-Pad2)*%
X149550472Y-118948277D03*
%TA.AperFunction,ComponentPad*%
D13*
%TO.P,D4,1*%
%TO.N,Net-(D12-Pad1)*%
G36*
X146481629Y-117152226D02*
G01*
X147754421Y-115879434D01*
X149027213Y-117152226D01*
X147754421Y-118425018D01*
X146481629Y-117152226D01*
G37*
%TD.AperFunction*%
%TD*%
D12*
%TO.P,D5,2*%
%TO.N,Net-(D13-Pad2)*%
X147701000Y-109601000D03*
D11*
%TO.P,D5,1*%
%TO.N,Net-(D13-Pad1)*%
X147701000Y-107061000D03*
%TD*%
%TA.AperFunction,ComponentPad*%
D13*
%TO.P,D6,1*%
%TO.N,Net-(D14-Pad1)*%
G36*
X152031917Y-98113772D02*
G01*
X153304709Y-99386564D01*
X152031917Y-100659356D01*
X150759125Y-99386564D01*
X152031917Y-98113772D01*
G37*
%TD.AperFunction*%
D12*
%TO.P,D6,2*%
%TO.N,Net-(D14-Pad2)*%
X150235866Y-101182615D03*
%TD*%
D11*
%TO.P,D7,1*%
%TO.N,Net-(D15-Pad1)*%
X162179000Y-99441000D03*
D12*
%TO.P,D7,2*%
%TO.N,Net-(D15-Pad2)*%
X159639000Y-99441000D03*
%TD*%
%TO.P,D8,2*%
%TO.N,Net-(D16-Pad2)*%
X168510589Y-101867570D03*
%TA.AperFunction,ComponentPad*%
D13*
%TO.P,D8,1*%
%TO.N,Net-(D16-Pad1)*%
G36*
X171579432Y-103663621D02*
G01*
X170306640Y-104936413D01*
X169033848Y-103663621D01*
X170306640Y-102390829D01*
X171579432Y-103663621D01*
G37*
%TD.AperFunction*%
%TD*%
D12*
%TO.P,D17,2*%
%TO.N,Net-(D17-Pad2)*%
X177419000Y-111379000D03*
D11*
%TO.P,D17,1*%
%TO.N,Net-(D1-Pad1)*%
X177419000Y-113919000D03*
%TD*%
%TA.AperFunction,ComponentPad*%
D13*
%TO.P,D18,1*%
%TO.N,Net-(D10-Pad1)*%
G36*
X170653176Y-128090228D02*
G01*
X169380384Y-126817436D01*
X170653176Y-125544644D01*
X171925968Y-126817436D01*
X170653176Y-128090228D01*
G37*
%TD.AperFunction*%
D12*
%TO.P,D18,2*%
%TO.N,Net-(D18-Pad2)*%
X172449227Y-125021385D03*
%TD*%
D11*
%TO.P,D19,1*%
%TO.N,Net-(D11-Pad1)*%
X155321000Y-129413000D03*
D12*
%TO.P,D19,2*%
%TO.N,Net-(D19-Pad2)*%
X157861000Y-129413000D03*
%TD*%
%TO.P,D20,2*%
%TO.N,Net-(D20-Pad2)*%
X144162318Y-124336430D03*
%TA.AperFunction,ComponentPad*%
D13*
%TO.P,D20,1*%
%TO.N,Net-(D12-Pad1)*%
G36*
X141093475Y-122540379D02*
G01*
X142366267Y-121267587D01*
X143639059Y-122540379D01*
X142366267Y-123813171D01*
X141093475Y-122540379D01*
G37*
%TD.AperFunction*%
%TD*%
D11*
%TO.P,D21,1*%
%TO.N,Net-(D13-Pad1)*%
X140081000Y-107061000D03*
D12*
%TO.P,D21,2*%
%TO.N,Net-(D21-Pad2)*%
X140081000Y-109601000D03*
%TD*%
%TA.AperFunction,ComponentPad*%
D13*
%TO.P,D22,1*%
%TO.N,Net-(D14-Pad1)*%
G36*
X146643764Y-92725618D02*
G01*
X147916556Y-93998410D01*
X146643764Y-95271202D01*
X145370972Y-93998410D01*
X146643764Y-92725618D01*
G37*
%TD.AperFunction*%
D12*
%TO.P,D22,2*%
%TO.N,Net-(D22-Pad2)*%
X144847713Y-95794461D03*
%TD*%
D11*
%TO.P,D23,1*%
%TO.N,Net-(D15-Pad1)*%
X162179000Y-91821000D03*
D12*
%TO.P,D23,2*%
%TO.N,Net-(D23-Pad2)*%
X159639000Y-91821000D03*
%TD*%
%TO.P,D24,2*%
%TO.N,Net-(D24-Pad2)*%
X173898742Y-96479416D03*
%TA.AperFunction,ComponentPad*%
D13*
%TO.P,D24,1*%
%TO.N,Net-(D16-Pad1)*%
G36*
X176967585Y-98275467D02*
G01*
X175694793Y-99548259D01*
X174422001Y-98275467D01*
X175694793Y-97002675D01*
X176967585Y-98275467D01*
G37*
%TD.AperFunction*%
%TD*%
D12*
%TO.P,D33,2*%
%TO.N,Net-(D33-Pad2)*%
X185039000Y-111379000D03*
D11*
%TO.P,D33,1*%
%TO.N,Net-(D1-Pad1)*%
X185039000Y-113919000D03*
%TD*%
%TA.AperFunction,ComponentPad*%
D13*
%TO.P,D34,1*%
%TO.N,Net-(D10-Pad1)*%
G36*
X176041329Y-133478382D02*
G01*
X174768537Y-132205590D01*
X176041329Y-130932798D01*
X177314121Y-132205590D01*
X176041329Y-133478382D01*
G37*
%TD.AperFunction*%
D12*
%TO.P,D34,2*%
%TO.N,Net-(D34-Pad2)*%
X177837380Y-130409539D03*
%TD*%
%TO.P,D35,2*%
%TO.N,Net-(D35-Pad2)*%
X157861000Y-137033000D03*
D11*
%TO.P,D35,1*%
%TO.N,Net-(D11-Pad1)*%
X155321000Y-137033000D03*
%TD*%
%TA.AperFunction,ComponentPad*%
D13*
%TO.P,D36,1*%
%TO.N,Net-(D12-Pad1)*%
G36*
X135705322Y-127928533D02*
G01*
X136978114Y-126655741D01*
X138250906Y-127928533D01*
X136978114Y-129201325D01*
X135705322Y-127928533D01*
G37*
%TD.AperFunction*%
D12*
%TO.P,D36,2*%
%TO.N,Net-(D36-Pad2)*%
X138774165Y-129724584D03*
%TD*%
%TO.P,D37,2*%
%TO.N,Net-(D37-Pad2)*%
X132461000Y-109601000D03*
D11*
%TO.P,D37,1*%
%TO.N,Net-(D13-Pad1)*%
X132461000Y-107061000D03*
%TD*%
D12*
%TO.P,D38,2*%
%TO.N,Net-(D38-Pad2)*%
X139459559Y-90406308D03*
%TA.AperFunction,ComponentPad*%
D13*
%TO.P,D38,1*%
%TO.N,Net-(D14-Pad1)*%
G36*
X141255610Y-87337465D02*
G01*
X142528402Y-88610257D01*
X141255610Y-89883049D01*
X139982818Y-88610257D01*
X141255610Y-87337465D01*
G37*
%TD.AperFunction*%
%TD*%
D12*
%TO.P,D39,2*%
%TO.N,Net-(D39-Pad2)*%
X159639000Y-84201000D03*
D11*
%TO.P,D39,1*%
%TO.N,Net-(D15-Pad1)*%
X162179000Y-84201000D03*
%TD*%
D12*
%TO.P,D40,2*%
%TO.N,Net-(D40-Pad2)*%
X179286896Y-91091263D03*
%TA.AperFunction,ComponentPad*%
D13*
%TO.P,D40,1*%
%TO.N,Net-(D16-Pad1)*%
G36*
X182355739Y-92887314D02*
G01*
X181082947Y-94160106D01*
X179810155Y-92887314D01*
X181082947Y-91614522D01*
X182355739Y-92887314D01*
G37*
%TD.AperFunction*%
%TD*%
D14*
%TO.N,Net-(D16-Pad1)*%
X161036000Y-80264000D03*
X161036000Y-81788000D03*
X160782000Y-87884000D03*
X160782000Y-89408000D03*
X160782000Y-95504000D03*
X160782000Y-97028000D03*
X171196000Y-101092000D03*
X172212000Y-100076000D03*
X176530000Y-95758000D03*
X177546000Y-94488000D03*
X181864000Y-90424000D03*
X183134000Y-89154000D03*
X172212000Y-112522000D03*
X173736000Y-112522000D03*
X179832000Y-112522000D03*
X181356000Y-112522000D03*
X187452000Y-112522000D03*
X188976000Y-112522000D03*
X167894000Y-122174000D03*
X168910000Y-123190000D03*
X173228000Y-127508000D03*
X174244000Y-128524000D03*
X178562000Y-133096000D03*
X179832000Y-134112000D03*
X156718000Y-124206000D03*
X156718000Y-125730000D03*
X156718000Y-131826000D03*
X156464000Y-133350000D03*
X156718000Y-139192000D03*
X156718000Y-140970000D03*
X136144000Y-130556000D03*
X135128000Y-131572000D03*
X140462000Y-126238000D03*
X141478000Y-125222000D03*
X145796000Y-120904000D03*
X146812000Y-119634000D03*
X144018000Y-108458000D03*
X145288000Y-108204000D03*
X136144000Y-108458000D03*
X137668000Y-108204000D03*
X128524000Y-108458000D03*
X130048000Y-108204000D03*
X148590000Y-97536000D03*
X149352000Y-98552000D03*
X143002000Y-91948000D03*
X144018000Y-93218000D03*
X137668000Y-86614000D03*
X138684000Y-87884000D03*
%TD*%
D15*
%TO.N,Net-(D16-Pad1)*%
X189840001Y-114521572D02*
X189840000Y-114521582D01*
X189840001Y-141834000D01*
X127660000Y-141834000D01*
X127660000Y-136133000D01*
X153782928Y-136133000D01*
X153782928Y-137933000D01*
X153795188Y-138057482D01*
X153831498Y-138177180D01*
X153890463Y-138287494D01*
X153969815Y-138384185D01*
X154066506Y-138463537D01*
X154176820Y-138522502D01*
X154296518Y-138558812D01*
X154421000Y-138571072D01*
X156221000Y-138571072D01*
X156345482Y-138558812D01*
X156465180Y-138522502D01*
X156575494Y-138463537D01*
X156672185Y-138384185D01*
X156751537Y-138287494D01*
X156810502Y-138177180D01*
X156816056Y-138158873D01*
X156882495Y-138225312D01*
X157133905Y-138393299D01*
X157413257Y-138509011D01*
X157709816Y-138568000D01*
X158012184Y-138568000D01*
X158308743Y-138509011D01*
X158588095Y-138393299D01*
X158839505Y-138225312D01*
X159053312Y-138011505D01*
X159221299Y-137760095D01*
X159337011Y-137480743D01*
X159396000Y-137184184D01*
X159396000Y-136881816D01*
X159337011Y-136585257D01*
X159221299Y-136305905D01*
X159053312Y-136054495D01*
X158839505Y-135840688D01*
X158588095Y-135672701D01*
X158308743Y-135556989D01*
X158012184Y-135498000D01*
X157709816Y-135498000D01*
X157413257Y-135556989D01*
X157133905Y-135672701D01*
X156882495Y-135840688D01*
X156816056Y-135907127D01*
X156810502Y-135888820D01*
X156751537Y-135778506D01*
X156672185Y-135681815D01*
X156575494Y-135602463D01*
X156465180Y-135543498D01*
X156345482Y-135507188D01*
X156221000Y-135494928D01*
X154421000Y-135494928D01*
X154296518Y-135507188D01*
X154176820Y-135543498D01*
X154066506Y-135602463D01*
X153969815Y-135681815D01*
X153890463Y-135778506D01*
X153831498Y-135888820D01*
X153795188Y-136008518D01*
X153782928Y-136133000D01*
X127660000Y-136133000D01*
X127660000Y-132205590D01*
X174130465Y-132205590D01*
X174142725Y-132330072D01*
X174179035Y-132449770D01*
X174238000Y-132560084D01*
X174317352Y-132656775D01*
X175590144Y-133929567D01*
X175686835Y-134008919D01*
X175797149Y-134067884D01*
X175916847Y-134104194D01*
X176041329Y-134116454D01*
X176165811Y-134104194D01*
X176285509Y-134067884D01*
X176395823Y-134008919D01*
X176492514Y-133929567D01*
X177765306Y-132656775D01*
X177844658Y-132560084D01*
X177903623Y-132449770D01*
X177939933Y-132330072D01*
X177952193Y-132205590D01*
X177939933Y-132081108D01*
X177903623Y-131961410D01*
X177894605Y-131944539D01*
X177988564Y-131944539D01*
X178285123Y-131885550D01*
X178564475Y-131769838D01*
X178815885Y-131601851D01*
X179029692Y-131388044D01*
X179197679Y-131136634D01*
X179313391Y-130857282D01*
X179372380Y-130560723D01*
X179372380Y-130258355D01*
X179313391Y-129961796D01*
X179197679Y-129682444D01*
X179029692Y-129431034D01*
X178815885Y-129217227D01*
X178564475Y-129049240D01*
X178285123Y-128933528D01*
X177988564Y-128874539D01*
X177686196Y-128874539D01*
X177389637Y-128933528D01*
X177110285Y-129049240D01*
X176858875Y-129217227D01*
X176645068Y-129431034D01*
X176477081Y-129682444D01*
X176361369Y-129961796D01*
X176302380Y-130258355D01*
X176302380Y-130352314D01*
X176285509Y-130343296D01*
X176165811Y-130306986D01*
X176041329Y-130294726D01*
X175916847Y-130306986D01*
X175797149Y-130343296D01*
X175686835Y-130402261D01*
X175590144Y-130481613D01*
X174317352Y-131754405D01*
X174238000Y-131851096D01*
X174179035Y-131961410D01*
X174142725Y-132081108D01*
X174130465Y-132205590D01*
X127660000Y-132205590D01*
X127660000Y-127928533D01*
X135067250Y-127928533D01*
X135079510Y-128053015D01*
X135115820Y-128172713D01*
X135174785Y-128283027D01*
X135254137Y-128379718D01*
X136526929Y-129652510D01*
X136623620Y-129731862D01*
X136733934Y-129790827D01*
X136853632Y-129827137D01*
X136978114Y-129839397D01*
X137102596Y-129827137D01*
X137222294Y-129790827D01*
X137239165Y-129781809D01*
X137239165Y-129875768D01*
X137298154Y-130172327D01*
X137413866Y-130451679D01*
X137581853Y-130703089D01*
X137795660Y-130916896D01*
X138047070Y-131084883D01*
X138326422Y-131200595D01*
X138622981Y-131259584D01*
X138925349Y-131259584D01*
X139221908Y-131200595D01*
X139501260Y-131084883D01*
X139752670Y-130916896D01*
X139966477Y-130703089D01*
X140134464Y-130451679D01*
X140250176Y-130172327D01*
X140309165Y-129875768D01*
X140309165Y-129573400D01*
X140250176Y-129276841D01*
X140134464Y-128997489D01*
X139966477Y-128746079D01*
X139752670Y-128532272D01*
X139723828Y-128513000D01*
X153782928Y-128513000D01*
X153782928Y-130313000D01*
X153795188Y-130437482D01*
X153831498Y-130557180D01*
X153890463Y-130667494D01*
X153969815Y-130764185D01*
X154066506Y-130843537D01*
X154176820Y-130902502D01*
X154296518Y-130938812D01*
X154421000Y-130951072D01*
X156221000Y-130951072D01*
X156345482Y-130938812D01*
X156465180Y-130902502D01*
X156575494Y-130843537D01*
X156672185Y-130764185D01*
X156751537Y-130667494D01*
X156810502Y-130557180D01*
X156816056Y-130538873D01*
X156882495Y-130605312D01*
X157133905Y-130773299D01*
X157413257Y-130889011D01*
X157709816Y-130948000D01*
X158012184Y-130948000D01*
X158308743Y-130889011D01*
X158588095Y-130773299D01*
X158839505Y-130605312D01*
X159053312Y-130391505D01*
X159221299Y-130140095D01*
X159337011Y-129860743D01*
X159396000Y-129564184D01*
X159396000Y-129261816D01*
X159337011Y-128965257D01*
X159221299Y-128685905D01*
X159053312Y-128434495D01*
X158839505Y-128220688D01*
X158588095Y-128052701D01*
X158308743Y-127936989D01*
X158012184Y-127878000D01*
X157709816Y-127878000D01*
X157413257Y-127936989D01*
X157133905Y-128052701D01*
X156882495Y-128220688D01*
X156816056Y-128287127D01*
X156810502Y-128268820D01*
X156751537Y-128158506D01*
X156672185Y-128061815D01*
X156575494Y-127982463D01*
X156465180Y-127923498D01*
X156345482Y-127887188D01*
X156221000Y-127874928D01*
X154421000Y-127874928D01*
X154296518Y-127887188D01*
X154176820Y-127923498D01*
X154066506Y-127982463D01*
X153969815Y-128061815D01*
X153890463Y-128158506D01*
X153831498Y-128268820D01*
X153795188Y-128388518D01*
X153782928Y-128513000D01*
X139723828Y-128513000D01*
X139501260Y-128364285D01*
X139221908Y-128248573D01*
X138925349Y-128189584D01*
X138831390Y-128189584D01*
X138840408Y-128172713D01*
X138876718Y-128053015D01*
X138888978Y-127928533D01*
X138876718Y-127804051D01*
X138840408Y-127684353D01*
X138781443Y-127574039D01*
X138702091Y-127477348D01*
X138042179Y-126817436D01*
X168742312Y-126817436D01*
X168754572Y-126941918D01*
X168790882Y-127061616D01*
X168849847Y-127171930D01*
X168929199Y-127268621D01*
X170201991Y-128541413D01*
X170298682Y-128620765D01*
X170408996Y-128679730D01*
X170528694Y-128716040D01*
X170653176Y-128728300D01*
X170777658Y-128716040D01*
X170897356Y-128679730D01*
X171007670Y-128620765D01*
X171104361Y-128541413D01*
X172377153Y-127268621D01*
X172456505Y-127171930D01*
X172515470Y-127061616D01*
X172551780Y-126941918D01*
X172564040Y-126817436D01*
X172551780Y-126692954D01*
X172515470Y-126573256D01*
X172506452Y-126556385D01*
X172600411Y-126556385D01*
X172896970Y-126497396D01*
X173176322Y-126381684D01*
X173427732Y-126213697D01*
X173641539Y-125999890D01*
X173809526Y-125748480D01*
X173925238Y-125469128D01*
X173984227Y-125172569D01*
X173984227Y-124870201D01*
X173925238Y-124573642D01*
X173809526Y-124294290D01*
X173641539Y-124042880D01*
X173427732Y-123829073D01*
X173176322Y-123661086D01*
X172896970Y-123545374D01*
X172600411Y-123486385D01*
X172298043Y-123486385D01*
X172001484Y-123545374D01*
X171722132Y-123661086D01*
X171470722Y-123829073D01*
X171256915Y-124042880D01*
X171088928Y-124294290D01*
X170973216Y-124573642D01*
X170914227Y-124870201D01*
X170914227Y-124964160D01*
X170897356Y-124955142D01*
X170777658Y-124918832D01*
X170653176Y-124906572D01*
X170528694Y-124918832D01*
X170408996Y-124955142D01*
X170298682Y-125014107D01*
X170201991Y-125093459D01*
X168929199Y-126366251D01*
X168849847Y-126462942D01*
X168790882Y-126573256D01*
X168754572Y-126692954D01*
X168742312Y-126817436D01*
X138042179Y-126817436D01*
X137429299Y-126204556D01*
X137332608Y-126125204D01*
X137222294Y-126066239D01*
X137102596Y-126029929D01*
X136978114Y-126017669D01*
X136853632Y-126029929D01*
X136733934Y-126066239D01*
X136623620Y-126125204D01*
X136526929Y-126204556D01*
X135254137Y-127477348D01*
X135174785Y-127574039D01*
X135115820Y-127684353D01*
X135079510Y-127804051D01*
X135067250Y-127928533D01*
X127660000Y-127928533D01*
X127660000Y-122540379D01*
X140455403Y-122540379D01*
X140467663Y-122664861D01*
X140503973Y-122784559D01*
X140562938Y-122894873D01*
X140642290Y-122991564D01*
X141915082Y-124264356D01*
X142011773Y-124343708D01*
X142122087Y-124402673D01*
X142241785Y-124438983D01*
X142366267Y-124451243D01*
X142490749Y-124438983D01*
X142610447Y-124402673D01*
X142627318Y-124393655D01*
X142627318Y-124487614D01*
X142686307Y-124784173D01*
X142802019Y-125063525D01*
X142970006Y-125314935D01*
X143183813Y-125528742D01*
X143435223Y-125696729D01*
X143714575Y-125812441D01*
X144011134Y-125871430D01*
X144313502Y-125871430D01*
X144610061Y-125812441D01*
X144889413Y-125696729D01*
X145140823Y-125528742D01*
X145354630Y-125314935D01*
X145522617Y-125063525D01*
X145638329Y-124784173D01*
X145697318Y-124487614D01*
X145697318Y-124185246D01*
X145638329Y-123888687D01*
X145522617Y-123609335D01*
X145354630Y-123357925D01*
X145140823Y-123144118D01*
X144889413Y-122976131D01*
X144610061Y-122860419D01*
X144313502Y-122801430D01*
X144219543Y-122801430D01*
X144228561Y-122784559D01*
X144264871Y-122664861D01*
X144277131Y-122540379D01*
X144264871Y-122415897D01*
X144228561Y-122296199D01*
X144169596Y-122185885D01*
X144090244Y-122089194D01*
X142894050Y-120893000D01*
X153782928Y-120893000D01*
X153782928Y-122693000D01*
X153795188Y-122817482D01*
X153831498Y-122937180D01*
X153890463Y-123047494D01*
X153969815Y-123144185D01*
X154066506Y-123223537D01*
X154176820Y-123282502D01*
X154296518Y-123318812D01*
X154421000Y-123331072D01*
X156221000Y-123331072D01*
X156345482Y-123318812D01*
X156465180Y-123282502D01*
X156575494Y-123223537D01*
X156672185Y-123144185D01*
X156751537Y-123047494D01*
X156810502Y-122937180D01*
X156816056Y-122918873D01*
X156882495Y-122985312D01*
X157133905Y-123153299D01*
X157413257Y-123269011D01*
X157709816Y-123328000D01*
X158012184Y-123328000D01*
X158308743Y-123269011D01*
X158588095Y-123153299D01*
X158839505Y-122985312D01*
X159053312Y-122771505D01*
X159221299Y-122520095D01*
X159337011Y-122240743D01*
X159396000Y-121944184D01*
X159396000Y-121641816D01*
X159353725Y-121429283D01*
X163354158Y-121429283D01*
X163366418Y-121553765D01*
X163402728Y-121673463D01*
X163461693Y-121783777D01*
X163541045Y-121880468D01*
X164813837Y-123153260D01*
X164910528Y-123232612D01*
X165020842Y-123291577D01*
X165140540Y-123327887D01*
X165265022Y-123340147D01*
X165389504Y-123327887D01*
X165509202Y-123291577D01*
X165619516Y-123232612D01*
X165716207Y-123153260D01*
X166988999Y-121880468D01*
X167068351Y-121783777D01*
X167127316Y-121673463D01*
X167163626Y-121553765D01*
X167175886Y-121429283D01*
X167163626Y-121304801D01*
X167127316Y-121185103D01*
X167118298Y-121168232D01*
X167212257Y-121168232D01*
X167508816Y-121109243D01*
X167788168Y-120993531D01*
X168039578Y-120825544D01*
X168253385Y-120611737D01*
X168421372Y-120360327D01*
X168537084Y-120080975D01*
X168596073Y-119784416D01*
X168596073Y-119482048D01*
X168537084Y-119185489D01*
X168421372Y-118906137D01*
X168253385Y-118654727D01*
X168039578Y-118440920D01*
X167788168Y-118272933D01*
X167508816Y-118157221D01*
X167212257Y-118098232D01*
X166909889Y-118098232D01*
X166613330Y-118157221D01*
X166333978Y-118272933D01*
X166082568Y-118440920D01*
X165868761Y-118654727D01*
X165700774Y-118906137D01*
X165585062Y-119185489D01*
X165526073Y-119482048D01*
X165526073Y-119576007D01*
X165509202Y-119566989D01*
X165389504Y-119530679D01*
X165265022Y-119518419D01*
X165140540Y-119530679D01*
X165020842Y-119566989D01*
X164910528Y-119625954D01*
X164813837Y-119705306D01*
X163541045Y-120978098D01*
X163461693Y-121074789D01*
X163402728Y-121185103D01*
X163366418Y-121304801D01*
X163354158Y-121429283D01*
X159353725Y-121429283D01*
X159337011Y-121345257D01*
X159221299Y-121065905D01*
X159053312Y-120814495D01*
X158839505Y-120600688D01*
X158588095Y-120432701D01*
X158308743Y-120316989D01*
X158012184Y-120258000D01*
X157709816Y-120258000D01*
X157413257Y-120316989D01*
X157133905Y-120432701D01*
X156882495Y-120600688D01*
X156816056Y-120667127D01*
X156810502Y-120648820D01*
X156751537Y-120538506D01*
X156672185Y-120441815D01*
X156575494Y-120362463D01*
X156465180Y-120303498D01*
X156345482Y-120267188D01*
X156221000Y-120254928D01*
X154421000Y-120254928D01*
X154296518Y-120267188D01*
X154176820Y-120303498D01*
X154066506Y-120362463D01*
X153969815Y-120441815D01*
X153890463Y-120538506D01*
X153831498Y-120648820D01*
X153795188Y-120768518D01*
X153782928Y-120893000D01*
X142894050Y-120893000D01*
X142817452Y-120816402D01*
X142720761Y-120737050D01*
X142610447Y-120678085D01*
X142490749Y-120641775D01*
X142366267Y-120629515D01*
X142241785Y-120641775D01*
X142122087Y-120678085D01*
X142011773Y-120737050D01*
X141915082Y-120816402D01*
X140642290Y-122089194D01*
X140562938Y-122185885D01*
X140503973Y-122296199D01*
X140467663Y-122415897D01*
X140455403Y-122540379D01*
X127660000Y-122540379D01*
X127660000Y-117152226D01*
X145843557Y-117152226D01*
X145855817Y-117276708D01*
X145892127Y-117396406D01*
X145951092Y-117506720D01*
X146030444Y-117603411D01*
X147303236Y-118876203D01*
X147399927Y-118955555D01*
X147510241Y-119014520D01*
X147629939Y-119050830D01*
X147754421Y-119063090D01*
X147878903Y-119050830D01*
X147998601Y-119014520D01*
X148015472Y-119005502D01*
X148015472Y-119099461D01*
X148074461Y-119396020D01*
X148190173Y-119675372D01*
X148358160Y-119926782D01*
X148571967Y-120140589D01*
X148823377Y-120308576D01*
X149102729Y-120424288D01*
X149399288Y-120483277D01*
X149701656Y-120483277D01*
X149998215Y-120424288D01*
X150277567Y-120308576D01*
X150528977Y-120140589D01*
X150742784Y-119926782D01*
X150910771Y-119675372D01*
X151026483Y-119396020D01*
X151085472Y-119099461D01*
X151085472Y-118797093D01*
X151026483Y-118500534D01*
X150910771Y-118221182D01*
X150742784Y-117969772D01*
X150528977Y-117755965D01*
X150277567Y-117587978D01*
X149998215Y-117472266D01*
X149701656Y-117413277D01*
X149607697Y-117413277D01*
X149616715Y-117396406D01*
X149653025Y-117276708D01*
X149665285Y-117152226D01*
X149653025Y-117027744D01*
X149616715Y-116908046D01*
X149557750Y-116797732D01*
X149478398Y-116701041D01*
X148205606Y-115428249D01*
X148108915Y-115348897D01*
X147998601Y-115289932D01*
X147878903Y-115253622D01*
X147754421Y-115241362D01*
X147629939Y-115253622D01*
X147510241Y-115289932D01*
X147399927Y-115348897D01*
X147303236Y-115428249D01*
X146030444Y-116701041D01*
X145951092Y-116797732D01*
X145892127Y-116908046D01*
X145855817Y-117027744D01*
X145843557Y-117152226D01*
X127660000Y-117152226D01*
X127660000Y-114548475D01*
X161957000Y-114548475D01*
X161957000Y-115067525D01*
X162058261Y-115576601D01*
X162256893Y-116056141D01*
X162545262Y-116487715D01*
X162912285Y-116854738D01*
X163343859Y-117143107D01*
X163823399Y-117341739D01*
X164332475Y-117443000D01*
X164851525Y-117443000D01*
X165360601Y-117341739D01*
X165840141Y-117143107D01*
X166271715Y-116854738D01*
X166638738Y-116487715D01*
X166927107Y-116056141D01*
X167125739Y-115576601D01*
X167227000Y-115067525D01*
X167227000Y-114548475D01*
X167125739Y-114039399D01*
X166927107Y-113559859D01*
X166638738Y-113128285D01*
X166529453Y-113019000D01*
X168260928Y-113019000D01*
X168260928Y-114819000D01*
X168273188Y-114943482D01*
X168309498Y-115063180D01*
X168368463Y-115173494D01*
X168447815Y-115270185D01*
X168544506Y-115349537D01*
X168654820Y-115408502D01*
X168774518Y-115444812D01*
X168899000Y-115457072D01*
X170699000Y-115457072D01*
X170823482Y-115444812D01*
X170943180Y-115408502D01*
X171053494Y-115349537D01*
X171150185Y-115270185D01*
X171229537Y-115173494D01*
X171288502Y-115063180D01*
X171324812Y-114943482D01*
X171337072Y-114819000D01*
X171337072Y-113019000D01*
X175880928Y-113019000D01*
X175880928Y-114819000D01*
X175893188Y-114943482D01*
X175929498Y-115063180D01*
X175988463Y-115173494D01*
X176067815Y-115270185D01*
X176164506Y-115349537D01*
X176274820Y-115408502D01*
X176394518Y-115444812D01*
X176519000Y-115457072D01*
X178319000Y-115457072D01*
X178443482Y-115444812D01*
X178563180Y-115408502D01*
X178673494Y-115349537D01*
X178770185Y-115270185D01*
X178849537Y-115173494D01*
X178908502Y-115063180D01*
X178944812Y-114943482D01*
X178957072Y-114819000D01*
X178957072Y-113019000D01*
X183500928Y-113019000D01*
X183500928Y-114819000D01*
X183513188Y-114943482D01*
X183549498Y-115063180D01*
X183608463Y-115173494D01*
X183687815Y-115270185D01*
X183784506Y-115349537D01*
X183894820Y-115408502D01*
X184014518Y-115444812D01*
X184139000Y-115457072D01*
X185939000Y-115457072D01*
X186063482Y-115444812D01*
X186183180Y-115408502D01*
X186293494Y-115349537D01*
X186390185Y-115270185D01*
X186469537Y-115173494D01*
X186528502Y-115063180D01*
X186564812Y-114943482D01*
X186577072Y-114819000D01*
X186577072Y-113019000D01*
X186564812Y-112894518D01*
X186528502Y-112774820D01*
X186469537Y-112664506D01*
X186390185Y-112567815D01*
X186293494Y-112488463D01*
X186183180Y-112429498D01*
X186164873Y-112423944D01*
X186231312Y-112357505D01*
X186399299Y-112106095D01*
X186515011Y-111826743D01*
X186574000Y-111530184D01*
X186574000Y-111227816D01*
X186515011Y-110931257D01*
X186399299Y-110651905D01*
X186231312Y-110400495D01*
X186017505Y-110186688D01*
X185766095Y-110018701D01*
X185486743Y-109902989D01*
X185190184Y-109844000D01*
X184887816Y-109844000D01*
X184591257Y-109902989D01*
X184311905Y-110018701D01*
X184060495Y-110186688D01*
X183846688Y-110400495D01*
X183678701Y-110651905D01*
X183562989Y-110931257D01*
X183504000Y-111227816D01*
X183504000Y-111530184D01*
X183562989Y-111826743D01*
X183678701Y-112106095D01*
X183846688Y-112357505D01*
X183913127Y-112423944D01*
X183894820Y-112429498D01*
X183784506Y-112488463D01*
X183687815Y-112567815D01*
X183608463Y-112664506D01*
X183549498Y-112774820D01*
X183513188Y-112894518D01*
X183500928Y-113019000D01*
X178957072Y-113019000D01*
X178944812Y-112894518D01*
X178908502Y-112774820D01*
X178849537Y-112664506D01*
X178770185Y-112567815D01*
X178673494Y-112488463D01*
X178563180Y-112429498D01*
X178544873Y-112423944D01*
X178611312Y-112357505D01*
X178779299Y-112106095D01*
X178895011Y-111826743D01*
X178954000Y-111530184D01*
X178954000Y-111227816D01*
X178895011Y-110931257D01*
X178779299Y-110651905D01*
X178611312Y-110400495D01*
X178397505Y-110186688D01*
X178146095Y-110018701D01*
X177866743Y-109902989D01*
X177570184Y-109844000D01*
X177267816Y-109844000D01*
X176971257Y-109902989D01*
X176691905Y-110018701D01*
X176440495Y-110186688D01*
X176226688Y-110400495D01*
X176058701Y-110651905D01*
X175942989Y-110931257D01*
X175884000Y-111227816D01*
X175884000Y-111530184D01*
X175942989Y-111826743D01*
X176058701Y-112106095D01*
X176226688Y-112357505D01*
X176293127Y-112423944D01*
X176274820Y-112429498D01*
X176164506Y-112488463D01*
X176067815Y-112567815D01*
X175988463Y-112664506D01*
X175929498Y-112774820D01*
X175893188Y-112894518D01*
X175880928Y-113019000D01*
X171337072Y-113019000D01*
X171324812Y-112894518D01*
X171288502Y-112774820D01*
X171229537Y-112664506D01*
X171150185Y-112567815D01*
X171053494Y-112488463D01*
X170943180Y-112429498D01*
X170924873Y-112423944D01*
X170991312Y-112357505D01*
X171159299Y-112106095D01*
X171275011Y-111826743D01*
X171334000Y-111530184D01*
X171334000Y-111227816D01*
X171275011Y-110931257D01*
X171159299Y-110651905D01*
X170991312Y-110400495D01*
X170777505Y-110186688D01*
X170526095Y-110018701D01*
X170246743Y-109902989D01*
X169950184Y-109844000D01*
X169647816Y-109844000D01*
X169351257Y-109902989D01*
X169071905Y-110018701D01*
X168820495Y-110186688D01*
X168606688Y-110400495D01*
X168438701Y-110651905D01*
X168322989Y-110931257D01*
X168264000Y-111227816D01*
X168264000Y-111530184D01*
X168322989Y-111826743D01*
X168438701Y-112106095D01*
X168606688Y-112357505D01*
X168673127Y-112423944D01*
X168654820Y-112429498D01*
X168544506Y-112488463D01*
X168447815Y-112567815D01*
X168368463Y-112664506D01*
X168309498Y-112774820D01*
X168273188Y-112894518D01*
X168260928Y-113019000D01*
X166529453Y-113019000D01*
X166271715Y-112761262D01*
X165840141Y-112472893D01*
X165360601Y-112274261D01*
X164851525Y-112173000D01*
X164332475Y-112173000D01*
X163823399Y-112274261D01*
X163343859Y-112472893D01*
X162912285Y-112761262D01*
X162545262Y-113128285D01*
X162256893Y-113559859D01*
X162058261Y-114039399D01*
X161957000Y-114548475D01*
X127660000Y-114548475D01*
X127660000Y-106161000D01*
X130922928Y-106161000D01*
X130922928Y-107961000D01*
X130935188Y-108085482D01*
X130971498Y-108205180D01*
X131030463Y-108315494D01*
X131109815Y-108412185D01*
X131206506Y-108491537D01*
X131316820Y-108550502D01*
X131335127Y-108556056D01*
X131268688Y-108622495D01*
X131100701Y-108873905D01*
X130984989Y-109153257D01*
X130926000Y-109449816D01*
X130926000Y-109752184D01*
X130984989Y-110048743D01*
X131100701Y-110328095D01*
X131268688Y-110579505D01*
X131482495Y-110793312D01*
X131733905Y-110961299D01*
X132013257Y-111077011D01*
X132309816Y-111136000D01*
X132612184Y-111136000D01*
X132908743Y-111077011D01*
X133188095Y-110961299D01*
X133439505Y-110793312D01*
X133653312Y-110579505D01*
X133821299Y-110328095D01*
X133937011Y-110048743D01*
X133996000Y-109752184D01*
X133996000Y-109449816D01*
X133937011Y-109153257D01*
X133821299Y-108873905D01*
X133653312Y-108622495D01*
X133586873Y-108556056D01*
X133605180Y-108550502D01*
X133715494Y-108491537D01*
X133812185Y-108412185D01*
X133891537Y-108315494D01*
X133950502Y-108205180D01*
X133986812Y-108085482D01*
X133999072Y-107961000D01*
X133999072Y-106161000D01*
X138542928Y-106161000D01*
X138542928Y-107961000D01*
X138555188Y-108085482D01*
X138591498Y-108205180D01*
X138650463Y-108315494D01*
X138729815Y-108412185D01*
X138826506Y-108491537D01*
X138936820Y-108550502D01*
X138955127Y-108556056D01*
X138888688Y-108622495D01*
X138720701Y-108873905D01*
X138604989Y-109153257D01*
X138546000Y-109449816D01*
X138546000Y-109752184D01*
X138604989Y-110048743D01*
X138720701Y-110328095D01*
X138888688Y-110579505D01*
X139102495Y-110793312D01*
X139353905Y-110961299D01*
X139633257Y-111077011D01*
X139929816Y-111136000D01*
X140232184Y-111136000D01*
X140528743Y-111077011D01*
X140808095Y-110961299D01*
X141059505Y-110793312D01*
X141273312Y-110579505D01*
X141441299Y-110328095D01*
X141557011Y-110048743D01*
X141616000Y-109752184D01*
X141616000Y-109449816D01*
X141557011Y-109153257D01*
X141441299Y-108873905D01*
X141273312Y-108622495D01*
X141206873Y-108556056D01*
X141225180Y-108550502D01*
X141335494Y-108491537D01*
X141432185Y-108412185D01*
X141511537Y-108315494D01*
X141570502Y-108205180D01*
X141606812Y-108085482D01*
X141619072Y-107961000D01*
X141619072Y-106161000D01*
X146162928Y-106161000D01*
X146162928Y-107961000D01*
X146175188Y-108085482D01*
X146211498Y-108205180D01*
X146270463Y-108315494D01*
X146349815Y-108412185D01*
X146446506Y-108491537D01*
X146556820Y-108550502D01*
X146575127Y-108556056D01*
X146508688Y-108622495D01*
X146340701Y-108873905D01*
X146224989Y-109153257D01*
X146166000Y-109449816D01*
X146166000Y-109752184D01*
X146224989Y-110048743D01*
X146340701Y-110328095D01*
X146508688Y-110579505D01*
X146722495Y-110793312D01*
X146973905Y-110961299D01*
X147253257Y-111077011D01*
X147549816Y-111136000D01*
X147852184Y-111136000D01*
X148148743Y-111077011D01*
X148428095Y-110961299D01*
X148679505Y-110793312D01*
X148893312Y-110579505D01*
X149061299Y-110328095D01*
X149177011Y-110048743D01*
X149236000Y-109752184D01*
X149236000Y-109449816D01*
X149177011Y-109153257D01*
X149061299Y-108873905D01*
X148893312Y-108622495D01*
X148826873Y-108556056D01*
X148845180Y-108550502D01*
X148955494Y-108491537D01*
X149052185Y-108412185D01*
X149131537Y-108315494D01*
X149190502Y-108205180D01*
X149226812Y-108085482D01*
X149239072Y-107961000D01*
X149239072Y-106161000D01*
X149226812Y-106036518D01*
X149190502Y-105916820D01*
X149131537Y-105806506D01*
X149052185Y-105709815D01*
X148955494Y-105630463D01*
X148845180Y-105571498D01*
X148725482Y-105535188D01*
X148601000Y-105522928D01*
X146801000Y-105522928D01*
X146676518Y-105535188D01*
X146556820Y-105571498D01*
X146446506Y-105630463D01*
X146349815Y-105709815D01*
X146270463Y-105806506D01*
X146211498Y-105916820D01*
X146175188Y-106036518D01*
X146162928Y-106161000D01*
X141619072Y-106161000D01*
X141606812Y-106036518D01*
X141570502Y-105916820D01*
X141511537Y-105806506D01*
X141432185Y-105709815D01*
X141335494Y-105630463D01*
X141225180Y-105571498D01*
X141105482Y-105535188D01*
X140981000Y-105522928D01*
X139181000Y-105522928D01*
X139056518Y-105535188D01*
X138936820Y-105571498D01*
X138826506Y-105630463D01*
X138729815Y-105709815D01*
X138650463Y-105806506D01*
X138591498Y-105916820D01*
X138555188Y-106036518D01*
X138542928Y-106161000D01*
X133999072Y-106161000D01*
X133986812Y-106036518D01*
X133950502Y-105916820D01*
X133891537Y-105806506D01*
X133812185Y-105709815D01*
X133715494Y-105630463D01*
X133605180Y-105571498D01*
X133485482Y-105535188D01*
X133361000Y-105522928D01*
X131561000Y-105522928D01*
X131436518Y-105535188D01*
X131316820Y-105571498D01*
X131206506Y-105630463D01*
X131109815Y-105709815D01*
X131030463Y-105806506D01*
X130971498Y-105916820D01*
X130935188Y-106036518D01*
X130922928Y-106161000D01*
X127660000Y-106161000D01*
X127660000Y-104134475D01*
X161449000Y-104134475D01*
X161449000Y-104653525D01*
X161550261Y-105162601D01*
X161748893Y-105642141D01*
X162037262Y-106073715D01*
X162404285Y-106440738D01*
X162835859Y-106729107D01*
X163315399Y-106927739D01*
X163824475Y-107029000D01*
X164343525Y-107029000D01*
X164852601Y-106927739D01*
X165332141Y-106729107D01*
X165763715Y-106440738D01*
X166130738Y-106073715D01*
X166419107Y-105642141D01*
X166617739Y-105162601D01*
X166719000Y-104653525D01*
X166719000Y-104134475D01*
X166617739Y-103625399D01*
X166419107Y-103145859D01*
X166130738Y-102714285D01*
X165763715Y-102347262D01*
X165332141Y-102058893D01*
X164852601Y-101860261D01*
X164343525Y-101759000D01*
X163824475Y-101759000D01*
X163315399Y-101860261D01*
X162835859Y-102058893D01*
X162404285Y-102347262D01*
X162037262Y-102714285D01*
X161748893Y-103145859D01*
X161550261Y-103625399D01*
X161449000Y-104134475D01*
X127660000Y-104134475D01*
X127660000Y-101031431D01*
X148700866Y-101031431D01*
X148700866Y-101333799D01*
X148759855Y-101630358D01*
X148875567Y-101909710D01*
X149043554Y-102161120D01*
X149257361Y-102374927D01*
X149508771Y-102542914D01*
X149788123Y-102658626D01*
X150084682Y-102717615D01*
X150387050Y-102717615D01*
X150683609Y-102658626D01*
X150962961Y-102542914D01*
X151214371Y-102374927D01*
X151428178Y-102161120D01*
X151596165Y-101909710D01*
X151676242Y-101716386D01*
X166975589Y-101716386D01*
X166975589Y-102018754D01*
X167034578Y-102315313D01*
X167150290Y-102594665D01*
X167318277Y-102846075D01*
X167532084Y-103059882D01*
X167783494Y-103227869D01*
X168062846Y-103343581D01*
X168224632Y-103375762D01*
X168058197Y-103542197D01*
X168046729Y-103555363D01*
X168033724Y-103576593D01*
X168025110Y-103599952D01*
X168021219Y-103624542D01*
X168022200Y-103649419D01*
X168028016Y-103673627D01*
X168038442Y-103696235D01*
X168053079Y-103716374D01*
X170085079Y-106002374D01*
X170109443Y-106023597D01*
X170131399Y-106035333D01*
X170155224Y-106042560D01*
X170180000Y-106045000D01*
X170204776Y-106042560D01*
X170228601Y-106035333D01*
X170250557Y-106023597D01*
X170269803Y-106007803D01*
X172555803Y-103721803D01*
X172571597Y-103702557D01*
X172583333Y-103680601D01*
X172590560Y-103656776D01*
X172593000Y-103632000D01*
X172590560Y-103607224D01*
X172583333Y-103583399D01*
X172571597Y-103561443D01*
X172555803Y-103542197D01*
X171793803Y-102780197D01*
X171785303Y-102772436D01*
X170261303Y-101502436D01*
X170250557Y-101494403D01*
X170228601Y-101482667D01*
X170204776Y-101475440D01*
X170180000Y-101473000D01*
X170155224Y-101475440D01*
X170131399Y-101482667D01*
X170109443Y-101494403D01*
X170090197Y-101510197D01*
X170018781Y-101581613D01*
X169986600Y-101419827D01*
X169870888Y-101140475D01*
X169702901Y-100889065D01*
X169489094Y-100675258D01*
X169237684Y-100507271D01*
X168958332Y-100391559D01*
X168661773Y-100332570D01*
X168359405Y-100332570D01*
X168062846Y-100391559D01*
X167783494Y-100507271D01*
X167532084Y-100675258D01*
X167318277Y-100889065D01*
X167150290Y-101140475D01*
X167034578Y-101419827D01*
X166975589Y-101716386D01*
X151676242Y-101716386D01*
X151711877Y-101630358D01*
X151770866Y-101333799D01*
X151770866Y-101239840D01*
X151787737Y-101248858D01*
X151907435Y-101285168D01*
X152031917Y-101297428D01*
X152156399Y-101285168D01*
X152276097Y-101248858D01*
X152386411Y-101189893D01*
X152483102Y-101110541D01*
X153755894Y-99837749D01*
X153835246Y-99741058D01*
X153894211Y-99630744D01*
X153930521Y-99511046D01*
X153942781Y-99386564D01*
X153933253Y-99289816D01*
X158104000Y-99289816D01*
X158104000Y-99592184D01*
X158162989Y-99888743D01*
X158278701Y-100168095D01*
X158446688Y-100419505D01*
X158660495Y-100633312D01*
X158911905Y-100801299D01*
X159191257Y-100917011D01*
X159487816Y-100976000D01*
X159790184Y-100976000D01*
X160086743Y-100917011D01*
X160366095Y-100801299D01*
X160617505Y-100633312D01*
X160683944Y-100566873D01*
X160689498Y-100585180D01*
X160748463Y-100695494D01*
X160827815Y-100792185D01*
X160924506Y-100871537D01*
X161034820Y-100930502D01*
X161154518Y-100966812D01*
X161279000Y-100979072D01*
X163079000Y-100979072D01*
X163203482Y-100966812D01*
X163323180Y-100930502D01*
X163433494Y-100871537D01*
X163530185Y-100792185D01*
X163609537Y-100695494D01*
X163668502Y-100585180D01*
X163704812Y-100465482D01*
X163717072Y-100341000D01*
X163717072Y-98541000D01*
X163704812Y-98416518D01*
X163668502Y-98296820D01*
X163609537Y-98186506D01*
X163530185Y-98089815D01*
X163433494Y-98010463D01*
X163323180Y-97951498D01*
X163203482Y-97915188D01*
X163079000Y-97902928D01*
X161279000Y-97902928D01*
X161154518Y-97915188D01*
X161034820Y-97951498D01*
X160924506Y-98010463D01*
X160827815Y-98089815D01*
X160748463Y-98186506D01*
X160689498Y-98296820D01*
X160683944Y-98315127D01*
X160617505Y-98248688D01*
X160366095Y-98080701D01*
X160086743Y-97964989D01*
X159790184Y-97906000D01*
X159487816Y-97906000D01*
X159191257Y-97964989D01*
X158911905Y-98080701D01*
X158660495Y-98248688D01*
X158446688Y-98462495D01*
X158278701Y-98713905D01*
X158162989Y-98993257D01*
X158104000Y-99289816D01*
X153933253Y-99289816D01*
X153930521Y-99262082D01*
X153894211Y-99142384D01*
X153835246Y-99032070D01*
X153755894Y-98935379D01*
X152483102Y-97662587D01*
X152386411Y-97583235D01*
X152276097Y-97524270D01*
X152156399Y-97487960D01*
X152031917Y-97475700D01*
X151907435Y-97487960D01*
X151787737Y-97524270D01*
X151677423Y-97583235D01*
X151580732Y-97662587D01*
X150307940Y-98935379D01*
X150228588Y-99032070D01*
X150169623Y-99142384D01*
X150133313Y-99262082D01*
X150121053Y-99386564D01*
X150133313Y-99511046D01*
X150169623Y-99630744D01*
X150178641Y-99647615D01*
X150084682Y-99647615D01*
X149788123Y-99706604D01*
X149508771Y-99822316D01*
X149257361Y-99990303D01*
X149043554Y-100204110D01*
X148875567Y-100455520D01*
X148759855Y-100734872D01*
X148700866Y-101031431D01*
X127660000Y-101031431D01*
X127660000Y-95643277D01*
X143312713Y-95643277D01*
X143312713Y-95945645D01*
X143371702Y-96242204D01*
X143487414Y-96521556D01*
X143655401Y-96772966D01*
X143869208Y-96986773D01*
X144120618Y-97154760D01*
X144399970Y-97270472D01*
X144696529Y-97329461D01*
X144998897Y-97329461D01*
X145295456Y-97270472D01*
X145574808Y-97154760D01*
X145826218Y-96986773D01*
X146040025Y-96772966D01*
X146208012Y-96521556D01*
X146288089Y-96328232D01*
X172363742Y-96328232D01*
X172363742Y-96630600D01*
X172422731Y-96927159D01*
X172538443Y-97206511D01*
X172706430Y-97457921D01*
X172920237Y-97671728D01*
X173171647Y-97839715D01*
X173450999Y-97955427D01*
X173692641Y-98003492D01*
X173519557Y-98176576D01*
X173508089Y-98189742D01*
X173495084Y-98210972D01*
X173486470Y-98234331D01*
X173482579Y-98258921D01*
X173483560Y-98283798D01*
X173489376Y-98308006D01*
X173499802Y-98330614D01*
X173514439Y-98350753D01*
X175546439Y-100636753D01*
X175570803Y-100657976D01*
X175592759Y-100669712D01*
X175616584Y-100676939D01*
X175641360Y-100679379D01*
X175666136Y-100676939D01*
X175689961Y-100669712D01*
X175711917Y-100657976D01*
X175731163Y-100642182D01*
X178017163Y-98356182D01*
X178032957Y-98336936D01*
X178044693Y-98314980D01*
X178051920Y-98291155D01*
X178054360Y-98266379D01*
X178051920Y-98241603D01*
X178044693Y-98217778D01*
X178032957Y-98195822D01*
X178017163Y-98176576D01*
X177255163Y-97414576D01*
X177246663Y-97406815D01*
X175722663Y-96136815D01*
X175711917Y-96128782D01*
X175689961Y-96117046D01*
X175666136Y-96109819D01*
X175641360Y-96107379D01*
X175616584Y-96109819D01*
X175592759Y-96117046D01*
X175570803Y-96128782D01*
X175551557Y-96144576D01*
X175422818Y-96273315D01*
X175374753Y-96031673D01*
X175259041Y-95752321D01*
X175091054Y-95500911D01*
X174877247Y-95287104D01*
X174625837Y-95119117D01*
X174346485Y-95003405D01*
X174049926Y-94944416D01*
X173747558Y-94944416D01*
X173450999Y-95003405D01*
X173171647Y-95119117D01*
X172920237Y-95287104D01*
X172706430Y-95500911D01*
X172538443Y-95752321D01*
X172422731Y-96031673D01*
X172363742Y-96328232D01*
X146288089Y-96328232D01*
X146323724Y-96242204D01*
X146382713Y-95945645D01*
X146382713Y-95851686D01*
X146399584Y-95860704D01*
X146519282Y-95897014D01*
X146643764Y-95909274D01*
X146768246Y-95897014D01*
X146887944Y-95860704D01*
X146998258Y-95801739D01*
X147094949Y-95722387D01*
X148367741Y-94449595D01*
X148447093Y-94352904D01*
X148506058Y-94242590D01*
X148542368Y-94122892D01*
X148554628Y-93998410D01*
X148542368Y-93873928D01*
X148506058Y-93754230D01*
X148447093Y-93643916D01*
X148367741Y-93547225D01*
X147094949Y-92274433D01*
X146998258Y-92195081D01*
X146887944Y-92136116D01*
X146768246Y-92099806D01*
X146643764Y-92087546D01*
X146519282Y-92099806D01*
X146399584Y-92136116D01*
X146289270Y-92195081D01*
X146192579Y-92274433D01*
X144919787Y-93547225D01*
X144840435Y-93643916D01*
X144781470Y-93754230D01*
X144745160Y-93873928D01*
X144732900Y-93998410D01*
X144745160Y-94122892D01*
X144781470Y-94242590D01*
X144790488Y-94259461D01*
X144696529Y-94259461D01*
X144399970Y-94318450D01*
X144120618Y-94434162D01*
X143869208Y-94602149D01*
X143655401Y-94815956D01*
X143487414Y-95067366D01*
X143371702Y-95346718D01*
X143312713Y-95643277D01*
X127660000Y-95643277D01*
X127660000Y-90255124D01*
X137924559Y-90255124D01*
X137924559Y-90557492D01*
X137983548Y-90854051D01*
X138099260Y-91133403D01*
X138267247Y-91384813D01*
X138481054Y-91598620D01*
X138732464Y-91766607D01*
X139011816Y-91882319D01*
X139308375Y-91941308D01*
X139610743Y-91941308D01*
X139907302Y-91882319D01*
X140186654Y-91766607D01*
X140331511Y-91669816D01*
X158104000Y-91669816D01*
X158104000Y-91972184D01*
X158162989Y-92268743D01*
X158278701Y-92548095D01*
X158446688Y-92799505D01*
X158660495Y-93013312D01*
X158911905Y-93181299D01*
X159191257Y-93297011D01*
X159487816Y-93356000D01*
X159790184Y-93356000D01*
X160086743Y-93297011D01*
X160366095Y-93181299D01*
X160617505Y-93013312D01*
X160683944Y-92946873D01*
X160689498Y-92965180D01*
X160748463Y-93075494D01*
X160827815Y-93172185D01*
X160924506Y-93251537D01*
X161034820Y-93310502D01*
X161154518Y-93346812D01*
X161279000Y-93359072D01*
X163079000Y-93359072D01*
X163203482Y-93346812D01*
X163323180Y-93310502D01*
X163433494Y-93251537D01*
X163530185Y-93172185D01*
X163609537Y-93075494D01*
X163668502Y-92965180D01*
X163704812Y-92845482D01*
X163717072Y-92721000D01*
X163717072Y-90940079D01*
X177751896Y-90940079D01*
X177751896Y-91242447D01*
X177810885Y-91539006D01*
X177926597Y-91818358D01*
X178094584Y-92069768D01*
X178308391Y-92283575D01*
X178559801Y-92451562D01*
X178839153Y-92567274D01*
X179080794Y-92615339D01*
X178853557Y-92842576D01*
X178842089Y-92855742D01*
X178829084Y-92876972D01*
X178820470Y-92900331D01*
X178816579Y-92924921D01*
X178817560Y-92949798D01*
X178823376Y-92974006D01*
X178833802Y-92996614D01*
X178848439Y-93016753D01*
X180880439Y-95302753D01*
X180904803Y-95323976D01*
X180926759Y-95335712D01*
X180950584Y-95342939D01*
X180975360Y-95345379D01*
X181000136Y-95342939D01*
X181023961Y-95335712D01*
X181045917Y-95323976D01*
X181065163Y-95308182D01*
X183351163Y-93022182D01*
X183366957Y-93002936D01*
X183378693Y-92980980D01*
X183385920Y-92957155D01*
X183388360Y-92932379D01*
X183385920Y-92907603D01*
X183378693Y-92883778D01*
X183366957Y-92861822D01*
X183351163Y-92842576D01*
X182589163Y-92080576D01*
X182580663Y-92072815D01*
X181745592Y-91376922D01*
X181534132Y-91163337D01*
X181437441Y-91083984D01*
X181327127Y-91025020D01*
X181321124Y-91023199D01*
X181056663Y-90802815D01*
X181045917Y-90794782D01*
X181023961Y-90783046D01*
X181000136Y-90775819D01*
X180975360Y-90773379D01*
X180950584Y-90775819D01*
X180926759Y-90783046D01*
X180904803Y-90794782D01*
X180885557Y-90810576D01*
X180810972Y-90885161D01*
X180762907Y-90643520D01*
X180647195Y-90364168D01*
X180479208Y-90112758D01*
X180265401Y-89898951D01*
X180013991Y-89730964D01*
X179734639Y-89615252D01*
X179438080Y-89556263D01*
X179135712Y-89556263D01*
X178839153Y-89615252D01*
X178559801Y-89730964D01*
X178308391Y-89898951D01*
X178094584Y-90112758D01*
X177926597Y-90364168D01*
X177810885Y-90643520D01*
X177751896Y-90940079D01*
X163717072Y-90940079D01*
X163717072Y-90921000D01*
X163704812Y-90796518D01*
X163668502Y-90676820D01*
X163609537Y-90566506D01*
X163530185Y-90469815D01*
X163433494Y-90390463D01*
X163323180Y-90331498D01*
X163203482Y-90295188D01*
X163079000Y-90282928D01*
X161279000Y-90282928D01*
X161154518Y-90295188D01*
X161034820Y-90331498D01*
X160924506Y-90390463D01*
X160827815Y-90469815D01*
X160748463Y-90566506D01*
X160689498Y-90676820D01*
X160683944Y-90695127D01*
X160617505Y-90628688D01*
X160366095Y-90460701D01*
X160086743Y-90344989D01*
X159790184Y-90286000D01*
X159487816Y-90286000D01*
X159191257Y-90344989D01*
X158911905Y-90460701D01*
X158660495Y-90628688D01*
X158446688Y-90842495D01*
X158278701Y-91093905D01*
X158162989Y-91373257D01*
X158104000Y-91669816D01*
X140331511Y-91669816D01*
X140438064Y-91598620D01*
X140651871Y-91384813D01*
X140819858Y-91133403D01*
X140935570Y-90854051D01*
X140994559Y-90557492D01*
X140994559Y-90463533D01*
X141011430Y-90472551D01*
X141131128Y-90508861D01*
X141255610Y-90521121D01*
X141380092Y-90508861D01*
X141499790Y-90472551D01*
X141610104Y-90413586D01*
X141706795Y-90334234D01*
X142979587Y-89061442D01*
X143058939Y-88964751D01*
X143117904Y-88854437D01*
X143154214Y-88734739D01*
X143166474Y-88610257D01*
X143154214Y-88485775D01*
X143117904Y-88366077D01*
X143058939Y-88255763D01*
X142979587Y-88159072D01*
X141706795Y-86886280D01*
X141610104Y-86806928D01*
X141499790Y-86747963D01*
X141380092Y-86711653D01*
X141255610Y-86699393D01*
X141131128Y-86711653D01*
X141011430Y-86747963D01*
X140901116Y-86806928D01*
X140804425Y-86886280D01*
X139531633Y-88159072D01*
X139452281Y-88255763D01*
X139393316Y-88366077D01*
X139357006Y-88485775D01*
X139344746Y-88610257D01*
X139357006Y-88734739D01*
X139393316Y-88854437D01*
X139402334Y-88871308D01*
X139308375Y-88871308D01*
X139011816Y-88930297D01*
X138732464Y-89046009D01*
X138481054Y-89213996D01*
X138267247Y-89427803D01*
X138099260Y-89679213D01*
X137983548Y-89958565D01*
X137924559Y-90255124D01*
X127660000Y-90255124D01*
X127660000Y-84049816D01*
X158104000Y-84049816D01*
X158104000Y-84352184D01*
X158162989Y-84648743D01*
X158278701Y-84928095D01*
X158446688Y-85179505D01*
X158660495Y-85393312D01*
X158911905Y-85561299D01*
X159191257Y-85677011D01*
X159487816Y-85736000D01*
X159790184Y-85736000D01*
X160086743Y-85677011D01*
X160366095Y-85561299D01*
X160617505Y-85393312D01*
X160683944Y-85326873D01*
X160689498Y-85345180D01*
X160748463Y-85455494D01*
X160827815Y-85552185D01*
X160924506Y-85631537D01*
X161034820Y-85690502D01*
X161154518Y-85726812D01*
X161279000Y-85739072D01*
X163079000Y-85739072D01*
X163203482Y-85726812D01*
X163323180Y-85690502D01*
X163433494Y-85631537D01*
X163530185Y-85552185D01*
X163609537Y-85455494D01*
X163668502Y-85345180D01*
X163704812Y-85225482D01*
X163717072Y-85101000D01*
X163717072Y-83301000D01*
X163704812Y-83176518D01*
X163668502Y-83056820D01*
X163609537Y-82946506D01*
X163530185Y-82849815D01*
X163433494Y-82770463D01*
X163323180Y-82711498D01*
X163203482Y-82675188D01*
X163079000Y-82662928D01*
X161279000Y-82662928D01*
X161154518Y-82675188D01*
X161034820Y-82711498D01*
X160924506Y-82770463D01*
X160827815Y-82849815D01*
X160748463Y-82946506D01*
X160689498Y-83056820D01*
X160683944Y-83075127D01*
X160617505Y-83008688D01*
X160366095Y-82840701D01*
X160086743Y-82724989D01*
X159790184Y-82666000D01*
X159487816Y-82666000D01*
X159191257Y-82724989D01*
X158911905Y-82840701D01*
X158660495Y-83008688D01*
X158446688Y-83222495D01*
X158278701Y-83473905D01*
X158162989Y-83753257D01*
X158104000Y-84049816D01*
X127660000Y-84049816D01*
X127660000Y-79400000D01*
X189840000Y-79400000D01*
X189840001Y-114521572D01*
%TA.AperFunction,Conductor*%
D16*
G36*
X189840001Y-114521572D02*
G01*
X189840000Y-114521582D01*
X189840001Y-141834000D01*
X127660000Y-141834000D01*
X127660000Y-136133000D01*
X153782928Y-136133000D01*
X153782928Y-137933000D01*
X153795188Y-138057482D01*
X153831498Y-138177180D01*
X153890463Y-138287494D01*
X153969815Y-138384185D01*
X154066506Y-138463537D01*
X154176820Y-138522502D01*
X154296518Y-138558812D01*
X154421000Y-138571072D01*
X156221000Y-138571072D01*
X156345482Y-138558812D01*
X156465180Y-138522502D01*
X156575494Y-138463537D01*
X156672185Y-138384185D01*
X156751537Y-138287494D01*
X156810502Y-138177180D01*
X156816056Y-138158873D01*
X156882495Y-138225312D01*
X157133905Y-138393299D01*
X157413257Y-138509011D01*
X157709816Y-138568000D01*
X158012184Y-138568000D01*
X158308743Y-138509011D01*
X158588095Y-138393299D01*
X158839505Y-138225312D01*
X159053312Y-138011505D01*
X159221299Y-137760095D01*
X159337011Y-137480743D01*
X159396000Y-137184184D01*
X159396000Y-136881816D01*
X159337011Y-136585257D01*
X159221299Y-136305905D01*
X159053312Y-136054495D01*
X158839505Y-135840688D01*
X158588095Y-135672701D01*
X158308743Y-135556989D01*
X158012184Y-135498000D01*
X157709816Y-135498000D01*
X157413257Y-135556989D01*
X157133905Y-135672701D01*
X156882495Y-135840688D01*
X156816056Y-135907127D01*
X156810502Y-135888820D01*
X156751537Y-135778506D01*
X156672185Y-135681815D01*
X156575494Y-135602463D01*
X156465180Y-135543498D01*
X156345482Y-135507188D01*
X156221000Y-135494928D01*
X154421000Y-135494928D01*
X154296518Y-135507188D01*
X154176820Y-135543498D01*
X154066506Y-135602463D01*
X153969815Y-135681815D01*
X153890463Y-135778506D01*
X153831498Y-135888820D01*
X153795188Y-136008518D01*
X153782928Y-136133000D01*
X127660000Y-136133000D01*
X127660000Y-132205590D01*
X174130465Y-132205590D01*
X174142725Y-132330072D01*
X174179035Y-132449770D01*
X174238000Y-132560084D01*
X174317352Y-132656775D01*
X175590144Y-133929567D01*
X175686835Y-134008919D01*
X175797149Y-134067884D01*
X175916847Y-134104194D01*
X176041329Y-134116454D01*
X176165811Y-134104194D01*
X176285509Y-134067884D01*
X176395823Y-134008919D01*
X176492514Y-133929567D01*
X177765306Y-132656775D01*
X177844658Y-132560084D01*
X177903623Y-132449770D01*
X177939933Y-132330072D01*
X177952193Y-132205590D01*
X177939933Y-132081108D01*
X177903623Y-131961410D01*
X177894605Y-131944539D01*
X177988564Y-131944539D01*
X178285123Y-131885550D01*
X178564475Y-131769838D01*
X178815885Y-131601851D01*
X179029692Y-131388044D01*
X179197679Y-131136634D01*
X179313391Y-130857282D01*
X179372380Y-130560723D01*
X179372380Y-130258355D01*
X179313391Y-129961796D01*
X179197679Y-129682444D01*
X179029692Y-129431034D01*
X178815885Y-129217227D01*
X178564475Y-129049240D01*
X178285123Y-128933528D01*
X177988564Y-128874539D01*
X177686196Y-128874539D01*
X177389637Y-128933528D01*
X177110285Y-129049240D01*
X176858875Y-129217227D01*
X176645068Y-129431034D01*
X176477081Y-129682444D01*
X176361369Y-129961796D01*
X176302380Y-130258355D01*
X176302380Y-130352314D01*
X176285509Y-130343296D01*
X176165811Y-130306986D01*
X176041329Y-130294726D01*
X175916847Y-130306986D01*
X175797149Y-130343296D01*
X175686835Y-130402261D01*
X175590144Y-130481613D01*
X174317352Y-131754405D01*
X174238000Y-131851096D01*
X174179035Y-131961410D01*
X174142725Y-132081108D01*
X174130465Y-132205590D01*
X127660000Y-132205590D01*
X127660000Y-127928533D01*
X135067250Y-127928533D01*
X135079510Y-128053015D01*
X135115820Y-128172713D01*
X135174785Y-128283027D01*
X135254137Y-128379718D01*
X136526929Y-129652510D01*
X136623620Y-129731862D01*
X136733934Y-129790827D01*
X136853632Y-129827137D01*
X136978114Y-129839397D01*
X137102596Y-129827137D01*
X137222294Y-129790827D01*
X137239165Y-129781809D01*
X137239165Y-129875768D01*
X137298154Y-130172327D01*
X137413866Y-130451679D01*
X137581853Y-130703089D01*
X137795660Y-130916896D01*
X138047070Y-131084883D01*
X138326422Y-131200595D01*
X138622981Y-131259584D01*
X138925349Y-131259584D01*
X139221908Y-131200595D01*
X139501260Y-131084883D01*
X139752670Y-130916896D01*
X139966477Y-130703089D01*
X140134464Y-130451679D01*
X140250176Y-130172327D01*
X140309165Y-129875768D01*
X140309165Y-129573400D01*
X140250176Y-129276841D01*
X140134464Y-128997489D01*
X139966477Y-128746079D01*
X139752670Y-128532272D01*
X139723828Y-128513000D01*
X153782928Y-128513000D01*
X153782928Y-130313000D01*
X153795188Y-130437482D01*
X153831498Y-130557180D01*
X153890463Y-130667494D01*
X153969815Y-130764185D01*
X154066506Y-130843537D01*
X154176820Y-130902502D01*
X154296518Y-130938812D01*
X154421000Y-130951072D01*
X156221000Y-130951072D01*
X156345482Y-130938812D01*
X156465180Y-130902502D01*
X156575494Y-130843537D01*
X156672185Y-130764185D01*
X156751537Y-130667494D01*
X156810502Y-130557180D01*
X156816056Y-130538873D01*
X156882495Y-130605312D01*
X157133905Y-130773299D01*
X157413257Y-130889011D01*
X157709816Y-130948000D01*
X158012184Y-130948000D01*
X158308743Y-130889011D01*
X158588095Y-130773299D01*
X158839505Y-130605312D01*
X159053312Y-130391505D01*
X159221299Y-130140095D01*
X159337011Y-129860743D01*
X159396000Y-129564184D01*
X159396000Y-129261816D01*
X159337011Y-128965257D01*
X159221299Y-128685905D01*
X159053312Y-128434495D01*
X158839505Y-128220688D01*
X158588095Y-128052701D01*
X158308743Y-127936989D01*
X158012184Y-127878000D01*
X157709816Y-127878000D01*
X157413257Y-127936989D01*
X157133905Y-128052701D01*
X156882495Y-128220688D01*
X156816056Y-128287127D01*
X156810502Y-128268820D01*
X156751537Y-128158506D01*
X156672185Y-128061815D01*
X156575494Y-127982463D01*
X156465180Y-127923498D01*
X156345482Y-127887188D01*
X156221000Y-127874928D01*
X154421000Y-127874928D01*
X154296518Y-127887188D01*
X154176820Y-127923498D01*
X154066506Y-127982463D01*
X153969815Y-128061815D01*
X153890463Y-128158506D01*
X153831498Y-128268820D01*
X153795188Y-128388518D01*
X153782928Y-128513000D01*
X139723828Y-128513000D01*
X139501260Y-128364285D01*
X139221908Y-128248573D01*
X138925349Y-128189584D01*
X138831390Y-128189584D01*
X138840408Y-128172713D01*
X138876718Y-128053015D01*
X138888978Y-127928533D01*
X138876718Y-127804051D01*
X138840408Y-127684353D01*
X138781443Y-127574039D01*
X138702091Y-127477348D01*
X138042179Y-126817436D01*
X168742312Y-126817436D01*
X168754572Y-126941918D01*
X168790882Y-127061616D01*
X168849847Y-127171930D01*
X168929199Y-127268621D01*
X170201991Y-128541413D01*
X170298682Y-128620765D01*
X170408996Y-128679730D01*
X170528694Y-128716040D01*
X170653176Y-128728300D01*
X170777658Y-128716040D01*
X170897356Y-128679730D01*
X171007670Y-128620765D01*
X171104361Y-128541413D01*
X172377153Y-127268621D01*
X172456505Y-127171930D01*
X172515470Y-127061616D01*
X172551780Y-126941918D01*
X172564040Y-126817436D01*
X172551780Y-126692954D01*
X172515470Y-126573256D01*
X172506452Y-126556385D01*
X172600411Y-126556385D01*
X172896970Y-126497396D01*
X173176322Y-126381684D01*
X173427732Y-126213697D01*
X173641539Y-125999890D01*
X173809526Y-125748480D01*
X173925238Y-125469128D01*
X173984227Y-125172569D01*
X173984227Y-124870201D01*
X173925238Y-124573642D01*
X173809526Y-124294290D01*
X173641539Y-124042880D01*
X173427732Y-123829073D01*
X173176322Y-123661086D01*
X172896970Y-123545374D01*
X172600411Y-123486385D01*
X172298043Y-123486385D01*
X172001484Y-123545374D01*
X171722132Y-123661086D01*
X171470722Y-123829073D01*
X171256915Y-124042880D01*
X171088928Y-124294290D01*
X170973216Y-124573642D01*
X170914227Y-124870201D01*
X170914227Y-124964160D01*
X170897356Y-124955142D01*
X170777658Y-124918832D01*
X170653176Y-124906572D01*
X170528694Y-124918832D01*
X170408996Y-124955142D01*
X170298682Y-125014107D01*
X170201991Y-125093459D01*
X168929199Y-126366251D01*
X168849847Y-126462942D01*
X168790882Y-126573256D01*
X168754572Y-126692954D01*
X168742312Y-126817436D01*
X138042179Y-126817436D01*
X137429299Y-126204556D01*
X137332608Y-126125204D01*
X137222294Y-126066239D01*
X137102596Y-126029929D01*
X136978114Y-126017669D01*
X136853632Y-126029929D01*
X136733934Y-126066239D01*
X136623620Y-126125204D01*
X136526929Y-126204556D01*
X135254137Y-127477348D01*
X135174785Y-127574039D01*
X135115820Y-127684353D01*
X135079510Y-127804051D01*
X135067250Y-127928533D01*
X127660000Y-127928533D01*
X127660000Y-122540379D01*
X140455403Y-122540379D01*
X140467663Y-122664861D01*
X140503973Y-122784559D01*
X140562938Y-122894873D01*
X140642290Y-122991564D01*
X141915082Y-124264356D01*
X142011773Y-124343708D01*
X142122087Y-124402673D01*
X142241785Y-124438983D01*
X142366267Y-124451243D01*
X142490749Y-124438983D01*
X142610447Y-124402673D01*
X142627318Y-124393655D01*
X142627318Y-124487614D01*
X142686307Y-124784173D01*
X142802019Y-125063525D01*
X142970006Y-125314935D01*
X143183813Y-125528742D01*
X143435223Y-125696729D01*
X143714575Y-125812441D01*
X144011134Y-125871430D01*
X144313502Y-125871430D01*
X144610061Y-125812441D01*
X144889413Y-125696729D01*
X145140823Y-125528742D01*
X145354630Y-125314935D01*
X145522617Y-125063525D01*
X145638329Y-124784173D01*
X145697318Y-124487614D01*
X145697318Y-124185246D01*
X145638329Y-123888687D01*
X145522617Y-123609335D01*
X145354630Y-123357925D01*
X145140823Y-123144118D01*
X144889413Y-122976131D01*
X144610061Y-122860419D01*
X144313502Y-122801430D01*
X144219543Y-122801430D01*
X144228561Y-122784559D01*
X144264871Y-122664861D01*
X144277131Y-122540379D01*
X144264871Y-122415897D01*
X144228561Y-122296199D01*
X144169596Y-122185885D01*
X144090244Y-122089194D01*
X142894050Y-120893000D01*
X153782928Y-120893000D01*
X153782928Y-122693000D01*
X153795188Y-122817482D01*
X153831498Y-122937180D01*
X153890463Y-123047494D01*
X153969815Y-123144185D01*
X154066506Y-123223537D01*
X154176820Y-123282502D01*
X154296518Y-123318812D01*
X154421000Y-123331072D01*
X156221000Y-123331072D01*
X156345482Y-123318812D01*
X156465180Y-123282502D01*
X156575494Y-123223537D01*
X156672185Y-123144185D01*
X156751537Y-123047494D01*
X156810502Y-122937180D01*
X156816056Y-122918873D01*
X156882495Y-122985312D01*
X157133905Y-123153299D01*
X157413257Y-123269011D01*
X157709816Y-123328000D01*
X158012184Y-123328000D01*
X158308743Y-123269011D01*
X158588095Y-123153299D01*
X158839505Y-122985312D01*
X159053312Y-122771505D01*
X159221299Y-122520095D01*
X159337011Y-122240743D01*
X159396000Y-121944184D01*
X159396000Y-121641816D01*
X159353725Y-121429283D01*
X163354158Y-121429283D01*
X163366418Y-121553765D01*
X163402728Y-121673463D01*
X163461693Y-121783777D01*
X163541045Y-121880468D01*
X164813837Y-123153260D01*
X164910528Y-123232612D01*
X165020842Y-123291577D01*
X165140540Y-123327887D01*
X165265022Y-123340147D01*
X165389504Y-123327887D01*
X165509202Y-123291577D01*
X165619516Y-123232612D01*
X165716207Y-123153260D01*
X166988999Y-121880468D01*
X167068351Y-121783777D01*
X167127316Y-121673463D01*
X167163626Y-121553765D01*
X167175886Y-121429283D01*
X167163626Y-121304801D01*
X167127316Y-121185103D01*
X167118298Y-121168232D01*
X167212257Y-121168232D01*
X167508816Y-121109243D01*
X167788168Y-120993531D01*
X168039578Y-120825544D01*
X168253385Y-120611737D01*
X168421372Y-120360327D01*
X168537084Y-120080975D01*
X168596073Y-119784416D01*
X168596073Y-119482048D01*
X168537084Y-119185489D01*
X168421372Y-118906137D01*
X168253385Y-118654727D01*
X168039578Y-118440920D01*
X167788168Y-118272933D01*
X167508816Y-118157221D01*
X167212257Y-118098232D01*
X166909889Y-118098232D01*
X166613330Y-118157221D01*
X166333978Y-118272933D01*
X166082568Y-118440920D01*
X165868761Y-118654727D01*
X165700774Y-118906137D01*
X165585062Y-119185489D01*
X165526073Y-119482048D01*
X165526073Y-119576007D01*
X165509202Y-119566989D01*
X165389504Y-119530679D01*
X165265022Y-119518419D01*
X165140540Y-119530679D01*
X165020842Y-119566989D01*
X164910528Y-119625954D01*
X164813837Y-119705306D01*
X163541045Y-120978098D01*
X163461693Y-121074789D01*
X163402728Y-121185103D01*
X163366418Y-121304801D01*
X163354158Y-121429283D01*
X159353725Y-121429283D01*
X159337011Y-121345257D01*
X159221299Y-121065905D01*
X159053312Y-120814495D01*
X158839505Y-120600688D01*
X158588095Y-120432701D01*
X158308743Y-120316989D01*
X158012184Y-120258000D01*
X157709816Y-120258000D01*
X157413257Y-120316989D01*
X157133905Y-120432701D01*
X156882495Y-120600688D01*
X156816056Y-120667127D01*
X156810502Y-120648820D01*
X156751537Y-120538506D01*
X156672185Y-120441815D01*
X156575494Y-120362463D01*
X156465180Y-120303498D01*
X156345482Y-120267188D01*
X156221000Y-120254928D01*
X154421000Y-120254928D01*
X154296518Y-120267188D01*
X154176820Y-120303498D01*
X154066506Y-120362463D01*
X153969815Y-120441815D01*
X153890463Y-120538506D01*
X153831498Y-120648820D01*
X153795188Y-120768518D01*
X153782928Y-120893000D01*
X142894050Y-120893000D01*
X142817452Y-120816402D01*
X142720761Y-120737050D01*
X142610447Y-120678085D01*
X142490749Y-120641775D01*
X142366267Y-120629515D01*
X142241785Y-120641775D01*
X142122087Y-120678085D01*
X142011773Y-120737050D01*
X141915082Y-120816402D01*
X140642290Y-122089194D01*
X140562938Y-122185885D01*
X140503973Y-122296199D01*
X140467663Y-122415897D01*
X140455403Y-122540379D01*
X127660000Y-122540379D01*
X127660000Y-117152226D01*
X145843557Y-117152226D01*
X145855817Y-117276708D01*
X145892127Y-117396406D01*
X145951092Y-117506720D01*
X146030444Y-117603411D01*
X147303236Y-118876203D01*
X147399927Y-118955555D01*
X147510241Y-119014520D01*
X147629939Y-119050830D01*
X147754421Y-119063090D01*
X147878903Y-119050830D01*
X147998601Y-119014520D01*
X148015472Y-119005502D01*
X148015472Y-119099461D01*
X148074461Y-119396020D01*
X148190173Y-119675372D01*
X148358160Y-119926782D01*
X148571967Y-120140589D01*
X148823377Y-120308576D01*
X149102729Y-120424288D01*
X149399288Y-120483277D01*
X149701656Y-120483277D01*
X149998215Y-120424288D01*
X150277567Y-120308576D01*
X150528977Y-120140589D01*
X150742784Y-119926782D01*
X150910771Y-119675372D01*
X151026483Y-119396020D01*
X151085472Y-119099461D01*
X151085472Y-118797093D01*
X151026483Y-118500534D01*
X150910771Y-118221182D01*
X150742784Y-117969772D01*
X150528977Y-117755965D01*
X150277567Y-117587978D01*
X149998215Y-117472266D01*
X149701656Y-117413277D01*
X149607697Y-117413277D01*
X149616715Y-117396406D01*
X149653025Y-117276708D01*
X149665285Y-117152226D01*
X149653025Y-117027744D01*
X149616715Y-116908046D01*
X149557750Y-116797732D01*
X149478398Y-116701041D01*
X148205606Y-115428249D01*
X148108915Y-115348897D01*
X147998601Y-115289932D01*
X147878903Y-115253622D01*
X147754421Y-115241362D01*
X147629939Y-115253622D01*
X147510241Y-115289932D01*
X147399927Y-115348897D01*
X147303236Y-115428249D01*
X146030444Y-116701041D01*
X145951092Y-116797732D01*
X145892127Y-116908046D01*
X145855817Y-117027744D01*
X145843557Y-117152226D01*
X127660000Y-117152226D01*
X127660000Y-114548475D01*
X161957000Y-114548475D01*
X161957000Y-115067525D01*
X162058261Y-115576601D01*
X162256893Y-116056141D01*
X162545262Y-116487715D01*
X162912285Y-116854738D01*
X163343859Y-117143107D01*
X163823399Y-117341739D01*
X164332475Y-117443000D01*
X164851525Y-117443000D01*
X165360601Y-117341739D01*
X165840141Y-117143107D01*
X166271715Y-116854738D01*
X166638738Y-116487715D01*
X166927107Y-116056141D01*
X167125739Y-115576601D01*
X167227000Y-115067525D01*
X167227000Y-114548475D01*
X167125739Y-114039399D01*
X166927107Y-113559859D01*
X166638738Y-113128285D01*
X166529453Y-113019000D01*
X168260928Y-113019000D01*
X168260928Y-114819000D01*
X168273188Y-114943482D01*
X168309498Y-115063180D01*
X168368463Y-115173494D01*
X168447815Y-115270185D01*
X168544506Y-115349537D01*
X168654820Y-115408502D01*
X168774518Y-115444812D01*
X168899000Y-115457072D01*
X170699000Y-115457072D01*
X170823482Y-115444812D01*
X170943180Y-115408502D01*
X171053494Y-115349537D01*
X171150185Y-115270185D01*
X171229537Y-115173494D01*
X171288502Y-115063180D01*
X171324812Y-114943482D01*
X171337072Y-114819000D01*
X171337072Y-113019000D01*
X175880928Y-113019000D01*
X175880928Y-114819000D01*
X175893188Y-114943482D01*
X175929498Y-115063180D01*
X175988463Y-115173494D01*
X176067815Y-115270185D01*
X176164506Y-115349537D01*
X176274820Y-115408502D01*
X176394518Y-115444812D01*
X176519000Y-115457072D01*
X178319000Y-115457072D01*
X178443482Y-115444812D01*
X178563180Y-115408502D01*
X178673494Y-115349537D01*
X178770185Y-115270185D01*
X178849537Y-115173494D01*
X178908502Y-115063180D01*
X178944812Y-114943482D01*
X178957072Y-114819000D01*
X178957072Y-113019000D01*
X183500928Y-113019000D01*
X183500928Y-114819000D01*
X183513188Y-114943482D01*
X183549498Y-115063180D01*
X183608463Y-115173494D01*
X183687815Y-115270185D01*
X183784506Y-115349537D01*
X183894820Y-115408502D01*
X184014518Y-115444812D01*
X184139000Y-115457072D01*
X185939000Y-115457072D01*
X186063482Y-115444812D01*
X186183180Y-115408502D01*
X186293494Y-115349537D01*
X186390185Y-115270185D01*
X186469537Y-115173494D01*
X186528502Y-115063180D01*
X186564812Y-114943482D01*
X186577072Y-114819000D01*
X186577072Y-113019000D01*
X186564812Y-112894518D01*
X186528502Y-112774820D01*
X186469537Y-112664506D01*
X186390185Y-112567815D01*
X186293494Y-112488463D01*
X186183180Y-112429498D01*
X186164873Y-112423944D01*
X186231312Y-112357505D01*
X186399299Y-112106095D01*
X186515011Y-111826743D01*
X186574000Y-111530184D01*
X186574000Y-111227816D01*
X186515011Y-110931257D01*
X186399299Y-110651905D01*
X186231312Y-110400495D01*
X186017505Y-110186688D01*
X185766095Y-110018701D01*
X185486743Y-109902989D01*
X185190184Y-109844000D01*
X184887816Y-109844000D01*
X184591257Y-109902989D01*
X184311905Y-110018701D01*
X184060495Y-110186688D01*
X183846688Y-110400495D01*
X183678701Y-110651905D01*
X183562989Y-110931257D01*
X183504000Y-111227816D01*
X183504000Y-111530184D01*
X183562989Y-111826743D01*
X183678701Y-112106095D01*
X183846688Y-112357505D01*
X183913127Y-112423944D01*
X183894820Y-112429498D01*
X183784506Y-112488463D01*
X183687815Y-112567815D01*
X183608463Y-112664506D01*
X183549498Y-112774820D01*
X183513188Y-112894518D01*
X183500928Y-113019000D01*
X178957072Y-113019000D01*
X178944812Y-112894518D01*
X178908502Y-112774820D01*
X178849537Y-112664506D01*
X178770185Y-112567815D01*
X178673494Y-112488463D01*
X178563180Y-112429498D01*
X178544873Y-112423944D01*
X178611312Y-112357505D01*
X178779299Y-112106095D01*
X178895011Y-111826743D01*
X178954000Y-111530184D01*
X178954000Y-111227816D01*
X178895011Y-110931257D01*
X178779299Y-110651905D01*
X178611312Y-110400495D01*
X178397505Y-110186688D01*
X178146095Y-110018701D01*
X177866743Y-109902989D01*
X177570184Y-109844000D01*
X177267816Y-109844000D01*
X176971257Y-109902989D01*
X176691905Y-110018701D01*
X176440495Y-110186688D01*
X176226688Y-110400495D01*
X176058701Y-110651905D01*
X175942989Y-110931257D01*
X175884000Y-111227816D01*
X175884000Y-111530184D01*
X175942989Y-111826743D01*
X176058701Y-112106095D01*
X176226688Y-112357505D01*
X176293127Y-112423944D01*
X176274820Y-112429498D01*
X176164506Y-112488463D01*
X176067815Y-112567815D01*
X175988463Y-112664506D01*
X175929498Y-112774820D01*
X175893188Y-112894518D01*
X175880928Y-113019000D01*
X171337072Y-113019000D01*
X171324812Y-112894518D01*
X171288502Y-112774820D01*
X171229537Y-112664506D01*
X171150185Y-112567815D01*
X171053494Y-112488463D01*
X170943180Y-112429498D01*
X170924873Y-112423944D01*
X170991312Y-112357505D01*
X171159299Y-112106095D01*
X171275011Y-111826743D01*
X171334000Y-111530184D01*
X171334000Y-111227816D01*
X171275011Y-110931257D01*
X171159299Y-110651905D01*
X170991312Y-110400495D01*
X170777505Y-110186688D01*
X170526095Y-110018701D01*
X170246743Y-109902989D01*
X169950184Y-109844000D01*
X169647816Y-109844000D01*
X169351257Y-109902989D01*
X169071905Y-110018701D01*
X168820495Y-110186688D01*
X168606688Y-110400495D01*
X168438701Y-110651905D01*
X168322989Y-110931257D01*
X168264000Y-111227816D01*
X168264000Y-111530184D01*
X168322989Y-111826743D01*
X168438701Y-112106095D01*
X168606688Y-112357505D01*
X168673127Y-112423944D01*
X168654820Y-112429498D01*
X168544506Y-112488463D01*
X168447815Y-112567815D01*
X168368463Y-112664506D01*
X168309498Y-112774820D01*
X168273188Y-112894518D01*
X168260928Y-113019000D01*
X166529453Y-113019000D01*
X166271715Y-112761262D01*
X165840141Y-112472893D01*
X165360601Y-112274261D01*
X164851525Y-112173000D01*
X164332475Y-112173000D01*
X163823399Y-112274261D01*
X163343859Y-112472893D01*
X162912285Y-112761262D01*
X162545262Y-113128285D01*
X162256893Y-113559859D01*
X162058261Y-114039399D01*
X161957000Y-114548475D01*
X127660000Y-114548475D01*
X127660000Y-106161000D01*
X130922928Y-106161000D01*
X130922928Y-107961000D01*
X130935188Y-108085482D01*
X130971498Y-108205180D01*
X131030463Y-108315494D01*
X131109815Y-108412185D01*
X131206506Y-108491537D01*
X131316820Y-108550502D01*
X131335127Y-108556056D01*
X131268688Y-108622495D01*
X131100701Y-108873905D01*
X130984989Y-109153257D01*
X130926000Y-109449816D01*
X130926000Y-109752184D01*
X130984989Y-110048743D01*
X131100701Y-110328095D01*
X131268688Y-110579505D01*
X131482495Y-110793312D01*
X131733905Y-110961299D01*
X132013257Y-111077011D01*
X132309816Y-111136000D01*
X132612184Y-111136000D01*
X132908743Y-111077011D01*
X133188095Y-110961299D01*
X133439505Y-110793312D01*
X133653312Y-110579505D01*
X133821299Y-110328095D01*
X133937011Y-110048743D01*
X133996000Y-109752184D01*
X133996000Y-109449816D01*
X133937011Y-109153257D01*
X133821299Y-108873905D01*
X133653312Y-108622495D01*
X133586873Y-108556056D01*
X133605180Y-108550502D01*
X133715494Y-108491537D01*
X133812185Y-108412185D01*
X133891537Y-108315494D01*
X133950502Y-108205180D01*
X133986812Y-108085482D01*
X133999072Y-107961000D01*
X133999072Y-106161000D01*
X138542928Y-106161000D01*
X138542928Y-107961000D01*
X138555188Y-108085482D01*
X138591498Y-108205180D01*
X138650463Y-108315494D01*
X138729815Y-108412185D01*
X138826506Y-108491537D01*
X138936820Y-108550502D01*
X138955127Y-108556056D01*
X138888688Y-108622495D01*
X138720701Y-108873905D01*
X138604989Y-109153257D01*
X138546000Y-109449816D01*
X138546000Y-109752184D01*
X138604989Y-110048743D01*
X138720701Y-110328095D01*
X138888688Y-110579505D01*
X139102495Y-110793312D01*
X139353905Y-110961299D01*
X139633257Y-111077011D01*
X139929816Y-111136000D01*
X140232184Y-111136000D01*
X140528743Y-111077011D01*
X140808095Y-110961299D01*
X141059505Y-110793312D01*
X141273312Y-110579505D01*
X141441299Y-110328095D01*
X141557011Y-110048743D01*
X141616000Y-109752184D01*
X141616000Y-109449816D01*
X141557011Y-109153257D01*
X141441299Y-108873905D01*
X141273312Y-108622495D01*
X141206873Y-108556056D01*
X141225180Y-108550502D01*
X141335494Y-108491537D01*
X141432185Y-108412185D01*
X141511537Y-108315494D01*
X141570502Y-108205180D01*
X141606812Y-108085482D01*
X141619072Y-107961000D01*
X141619072Y-106161000D01*
X146162928Y-106161000D01*
X146162928Y-107961000D01*
X146175188Y-108085482D01*
X146211498Y-108205180D01*
X146270463Y-108315494D01*
X146349815Y-108412185D01*
X146446506Y-108491537D01*
X146556820Y-108550502D01*
X146575127Y-108556056D01*
X146508688Y-108622495D01*
X146340701Y-108873905D01*
X146224989Y-109153257D01*
X146166000Y-109449816D01*
X146166000Y-109752184D01*
X146224989Y-110048743D01*
X146340701Y-110328095D01*
X146508688Y-110579505D01*
X146722495Y-110793312D01*
X146973905Y-110961299D01*
X147253257Y-111077011D01*
X147549816Y-111136000D01*
X147852184Y-111136000D01*
X148148743Y-111077011D01*
X148428095Y-110961299D01*
X148679505Y-110793312D01*
X148893312Y-110579505D01*
X149061299Y-110328095D01*
X149177011Y-110048743D01*
X149236000Y-109752184D01*
X149236000Y-109449816D01*
X149177011Y-109153257D01*
X149061299Y-108873905D01*
X148893312Y-108622495D01*
X148826873Y-108556056D01*
X148845180Y-108550502D01*
X148955494Y-108491537D01*
X149052185Y-108412185D01*
X149131537Y-108315494D01*
X149190502Y-108205180D01*
X149226812Y-108085482D01*
X149239072Y-107961000D01*
X149239072Y-106161000D01*
X149226812Y-106036518D01*
X149190502Y-105916820D01*
X149131537Y-105806506D01*
X149052185Y-105709815D01*
X148955494Y-105630463D01*
X148845180Y-105571498D01*
X148725482Y-105535188D01*
X148601000Y-105522928D01*
X146801000Y-105522928D01*
X146676518Y-105535188D01*
X146556820Y-105571498D01*
X146446506Y-105630463D01*
X146349815Y-105709815D01*
X146270463Y-105806506D01*
X146211498Y-105916820D01*
X146175188Y-106036518D01*
X146162928Y-106161000D01*
X141619072Y-106161000D01*
X141606812Y-106036518D01*
X141570502Y-105916820D01*
X141511537Y-105806506D01*
X141432185Y-105709815D01*
X141335494Y-105630463D01*
X141225180Y-105571498D01*
X141105482Y-105535188D01*
X140981000Y-105522928D01*
X139181000Y-105522928D01*
X139056518Y-105535188D01*
X138936820Y-105571498D01*
X138826506Y-105630463D01*
X138729815Y-105709815D01*
X138650463Y-105806506D01*
X138591498Y-105916820D01*
X138555188Y-106036518D01*
X138542928Y-106161000D01*
X133999072Y-106161000D01*
X133986812Y-106036518D01*
X133950502Y-105916820D01*
X133891537Y-105806506D01*
X133812185Y-105709815D01*
X133715494Y-105630463D01*
X133605180Y-105571498D01*
X133485482Y-105535188D01*
X133361000Y-105522928D01*
X131561000Y-105522928D01*
X131436518Y-105535188D01*
X131316820Y-105571498D01*
X131206506Y-105630463D01*
X131109815Y-105709815D01*
X131030463Y-105806506D01*
X130971498Y-105916820D01*
X130935188Y-106036518D01*
X130922928Y-106161000D01*
X127660000Y-106161000D01*
X127660000Y-104134475D01*
X161449000Y-104134475D01*
X161449000Y-104653525D01*
X161550261Y-105162601D01*
X161748893Y-105642141D01*
X162037262Y-106073715D01*
X162404285Y-106440738D01*
X162835859Y-106729107D01*
X163315399Y-106927739D01*
X163824475Y-107029000D01*
X164343525Y-107029000D01*
X164852601Y-106927739D01*
X165332141Y-106729107D01*
X165763715Y-106440738D01*
X166130738Y-106073715D01*
X166419107Y-105642141D01*
X166617739Y-105162601D01*
X166719000Y-104653525D01*
X166719000Y-104134475D01*
X166617739Y-103625399D01*
X166419107Y-103145859D01*
X166130738Y-102714285D01*
X165763715Y-102347262D01*
X165332141Y-102058893D01*
X164852601Y-101860261D01*
X164343525Y-101759000D01*
X163824475Y-101759000D01*
X163315399Y-101860261D01*
X162835859Y-102058893D01*
X162404285Y-102347262D01*
X162037262Y-102714285D01*
X161748893Y-103145859D01*
X161550261Y-103625399D01*
X161449000Y-104134475D01*
X127660000Y-104134475D01*
X127660000Y-101031431D01*
X148700866Y-101031431D01*
X148700866Y-101333799D01*
X148759855Y-101630358D01*
X148875567Y-101909710D01*
X149043554Y-102161120D01*
X149257361Y-102374927D01*
X149508771Y-102542914D01*
X149788123Y-102658626D01*
X150084682Y-102717615D01*
X150387050Y-102717615D01*
X150683609Y-102658626D01*
X150962961Y-102542914D01*
X151214371Y-102374927D01*
X151428178Y-102161120D01*
X151596165Y-101909710D01*
X151676242Y-101716386D01*
X166975589Y-101716386D01*
X166975589Y-102018754D01*
X167034578Y-102315313D01*
X167150290Y-102594665D01*
X167318277Y-102846075D01*
X167532084Y-103059882D01*
X167783494Y-103227869D01*
X168062846Y-103343581D01*
X168224632Y-103375762D01*
X168058197Y-103542197D01*
X168046729Y-103555363D01*
X168033724Y-103576593D01*
X168025110Y-103599952D01*
X168021219Y-103624542D01*
X168022200Y-103649419D01*
X168028016Y-103673627D01*
X168038442Y-103696235D01*
X168053079Y-103716374D01*
X170085079Y-106002374D01*
X170109443Y-106023597D01*
X170131399Y-106035333D01*
X170155224Y-106042560D01*
X170180000Y-106045000D01*
X170204776Y-106042560D01*
X170228601Y-106035333D01*
X170250557Y-106023597D01*
X170269803Y-106007803D01*
X172555803Y-103721803D01*
X172571597Y-103702557D01*
X172583333Y-103680601D01*
X172590560Y-103656776D01*
X172593000Y-103632000D01*
X172590560Y-103607224D01*
X172583333Y-103583399D01*
X172571597Y-103561443D01*
X172555803Y-103542197D01*
X171793803Y-102780197D01*
X171785303Y-102772436D01*
X170261303Y-101502436D01*
X170250557Y-101494403D01*
X170228601Y-101482667D01*
X170204776Y-101475440D01*
X170180000Y-101473000D01*
X170155224Y-101475440D01*
X170131399Y-101482667D01*
X170109443Y-101494403D01*
X170090197Y-101510197D01*
X170018781Y-101581613D01*
X169986600Y-101419827D01*
X169870888Y-101140475D01*
X169702901Y-100889065D01*
X169489094Y-100675258D01*
X169237684Y-100507271D01*
X168958332Y-100391559D01*
X168661773Y-100332570D01*
X168359405Y-100332570D01*
X168062846Y-100391559D01*
X167783494Y-100507271D01*
X167532084Y-100675258D01*
X167318277Y-100889065D01*
X167150290Y-101140475D01*
X167034578Y-101419827D01*
X166975589Y-101716386D01*
X151676242Y-101716386D01*
X151711877Y-101630358D01*
X151770866Y-101333799D01*
X151770866Y-101239840D01*
X151787737Y-101248858D01*
X151907435Y-101285168D01*
X152031917Y-101297428D01*
X152156399Y-101285168D01*
X152276097Y-101248858D01*
X152386411Y-101189893D01*
X152483102Y-101110541D01*
X153755894Y-99837749D01*
X153835246Y-99741058D01*
X153894211Y-99630744D01*
X153930521Y-99511046D01*
X153942781Y-99386564D01*
X153933253Y-99289816D01*
X158104000Y-99289816D01*
X158104000Y-99592184D01*
X158162989Y-99888743D01*
X158278701Y-100168095D01*
X158446688Y-100419505D01*
X158660495Y-100633312D01*
X158911905Y-100801299D01*
X159191257Y-100917011D01*
X159487816Y-100976000D01*
X159790184Y-100976000D01*
X160086743Y-100917011D01*
X160366095Y-100801299D01*
X160617505Y-100633312D01*
X160683944Y-100566873D01*
X160689498Y-100585180D01*
X160748463Y-100695494D01*
X160827815Y-100792185D01*
X160924506Y-100871537D01*
X161034820Y-100930502D01*
X161154518Y-100966812D01*
X161279000Y-100979072D01*
X163079000Y-100979072D01*
X163203482Y-100966812D01*
X163323180Y-100930502D01*
X163433494Y-100871537D01*
X163530185Y-100792185D01*
X163609537Y-100695494D01*
X163668502Y-100585180D01*
X163704812Y-100465482D01*
X163717072Y-100341000D01*
X163717072Y-98541000D01*
X163704812Y-98416518D01*
X163668502Y-98296820D01*
X163609537Y-98186506D01*
X163530185Y-98089815D01*
X163433494Y-98010463D01*
X163323180Y-97951498D01*
X163203482Y-97915188D01*
X163079000Y-97902928D01*
X161279000Y-97902928D01*
X161154518Y-97915188D01*
X161034820Y-97951498D01*
X160924506Y-98010463D01*
X160827815Y-98089815D01*
X160748463Y-98186506D01*
X160689498Y-98296820D01*
X160683944Y-98315127D01*
X160617505Y-98248688D01*
X160366095Y-98080701D01*
X160086743Y-97964989D01*
X159790184Y-97906000D01*
X159487816Y-97906000D01*
X159191257Y-97964989D01*
X158911905Y-98080701D01*
X158660495Y-98248688D01*
X158446688Y-98462495D01*
X158278701Y-98713905D01*
X158162989Y-98993257D01*
X158104000Y-99289816D01*
X153933253Y-99289816D01*
X153930521Y-99262082D01*
X153894211Y-99142384D01*
X153835246Y-99032070D01*
X153755894Y-98935379D01*
X152483102Y-97662587D01*
X152386411Y-97583235D01*
X152276097Y-97524270D01*
X152156399Y-97487960D01*
X152031917Y-97475700D01*
X151907435Y-97487960D01*
X151787737Y-97524270D01*
X151677423Y-97583235D01*
X151580732Y-97662587D01*
X150307940Y-98935379D01*
X150228588Y-99032070D01*
X150169623Y-99142384D01*
X150133313Y-99262082D01*
X150121053Y-99386564D01*
X150133313Y-99511046D01*
X150169623Y-99630744D01*
X150178641Y-99647615D01*
X150084682Y-99647615D01*
X149788123Y-99706604D01*
X149508771Y-99822316D01*
X149257361Y-99990303D01*
X149043554Y-100204110D01*
X148875567Y-100455520D01*
X148759855Y-100734872D01*
X148700866Y-101031431D01*
X127660000Y-101031431D01*
X127660000Y-95643277D01*
X143312713Y-95643277D01*
X143312713Y-95945645D01*
X143371702Y-96242204D01*
X143487414Y-96521556D01*
X143655401Y-96772966D01*
X143869208Y-96986773D01*
X144120618Y-97154760D01*
X144399970Y-97270472D01*
X144696529Y-97329461D01*
X144998897Y-97329461D01*
X145295456Y-97270472D01*
X145574808Y-97154760D01*
X145826218Y-96986773D01*
X146040025Y-96772966D01*
X146208012Y-96521556D01*
X146288089Y-96328232D01*
X172363742Y-96328232D01*
X172363742Y-96630600D01*
X172422731Y-96927159D01*
X172538443Y-97206511D01*
X172706430Y-97457921D01*
X172920237Y-97671728D01*
X173171647Y-97839715D01*
X173450999Y-97955427D01*
X173692641Y-98003492D01*
X173519557Y-98176576D01*
X173508089Y-98189742D01*
X173495084Y-98210972D01*
X173486470Y-98234331D01*
X173482579Y-98258921D01*
X173483560Y-98283798D01*
X173489376Y-98308006D01*
X173499802Y-98330614D01*
X173514439Y-98350753D01*
X175546439Y-100636753D01*
X175570803Y-100657976D01*
X175592759Y-100669712D01*
X175616584Y-100676939D01*
X175641360Y-100679379D01*
X175666136Y-100676939D01*
X175689961Y-100669712D01*
X175711917Y-100657976D01*
X175731163Y-100642182D01*
X178017163Y-98356182D01*
X178032957Y-98336936D01*
X178044693Y-98314980D01*
X178051920Y-98291155D01*
X178054360Y-98266379D01*
X178051920Y-98241603D01*
X178044693Y-98217778D01*
X178032957Y-98195822D01*
X178017163Y-98176576D01*
X177255163Y-97414576D01*
X177246663Y-97406815D01*
X175722663Y-96136815D01*
X175711917Y-96128782D01*
X175689961Y-96117046D01*
X175666136Y-96109819D01*
X175641360Y-96107379D01*
X175616584Y-96109819D01*
X175592759Y-96117046D01*
X175570803Y-96128782D01*
X175551557Y-96144576D01*
X175422818Y-96273315D01*
X175374753Y-96031673D01*
X175259041Y-95752321D01*
X175091054Y-95500911D01*
X174877247Y-95287104D01*
X174625837Y-95119117D01*
X174346485Y-95003405D01*
X174049926Y-94944416D01*
X173747558Y-94944416D01*
X173450999Y-95003405D01*
X173171647Y-95119117D01*
X172920237Y-95287104D01*
X172706430Y-95500911D01*
X172538443Y-95752321D01*
X172422731Y-96031673D01*
X172363742Y-96328232D01*
X146288089Y-96328232D01*
X146323724Y-96242204D01*
X146382713Y-95945645D01*
X146382713Y-95851686D01*
X146399584Y-95860704D01*
X146519282Y-95897014D01*
X146643764Y-95909274D01*
X146768246Y-95897014D01*
X146887944Y-95860704D01*
X146998258Y-95801739D01*
X147094949Y-95722387D01*
X148367741Y-94449595D01*
X148447093Y-94352904D01*
X148506058Y-94242590D01*
X148542368Y-94122892D01*
X148554628Y-93998410D01*
X148542368Y-93873928D01*
X148506058Y-93754230D01*
X148447093Y-93643916D01*
X148367741Y-93547225D01*
X147094949Y-92274433D01*
X146998258Y-92195081D01*
X146887944Y-92136116D01*
X146768246Y-92099806D01*
X146643764Y-92087546D01*
X146519282Y-92099806D01*
X146399584Y-92136116D01*
X146289270Y-92195081D01*
X146192579Y-92274433D01*
X144919787Y-93547225D01*
X144840435Y-93643916D01*
X144781470Y-93754230D01*
X144745160Y-93873928D01*
X144732900Y-93998410D01*
X144745160Y-94122892D01*
X144781470Y-94242590D01*
X144790488Y-94259461D01*
X144696529Y-94259461D01*
X144399970Y-94318450D01*
X144120618Y-94434162D01*
X143869208Y-94602149D01*
X143655401Y-94815956D01*
X143487414Y-95067366D01*
X143371702Y-95346718D01*
X143312713Y-95643277D01*
X127660000Y-95643277D01*
X127660000Y-90255124D01*
X137924559Y-90255124D01*
X137924559Y-90557492D01*
X137983548Y-90854051D01*
X138099260Y-91133403D01*
X138267247Y-91384813D01*
X138481054Y-91598620D01*
X138732464Y-91766607D01*
X139011816Y-91882319D01*
X139308375Y-91941308D01*
X139610743Y-91941308D01*
X139907302Y-91882319D01*
X140186654Y-91766607D01*
X140331511Y-91669816D01*
X158104000Y-91669816D01*
X158104000Y-91972184D01*
X158162989Y-92268743D01*
X158278701Y-92548095D01*
X158446688Y-92799505D01*
X158660495Y-93013312D01*
X158911905Y-93181299D01*
X159191257Y-93297011D01*
X159487816Y-93356000D01*
X159790184Y-93356000D01*
X160086743Y-93297011D01*
X160366095Y-93181299D01*
X160617505Y-93013312D01*
X160683944Y-92946873D01*
X160689498Y-92965180D01*
X160748463Y-93075494D01*
X160827815Y-93172185D01*
X160924506Y-93251537D01*
X161034820Y-93310502D01*
X161154518Y-93346812D01*
X161279000Y-93359072D01*
X163079000Y-93359072D01*
X163203482Y-93346812D01*
X163323180Y-93310502D01*
X163433494Y-93251537D01*
X163530185Y-93172185D01*
X163609537Y-93075494D01*
X163668502Y-92965180D01*
X163704812Y-92845482D01*
X163717072Y-92721000D01*
X163717072Y-90940079D01*
X177751896Y-90940079D01*
X177751896Y-91242447D01*
X177810885Y-91539006D01*
X177926597Y-91818358D01*
X178094584Y-92069768D01*
X178308391Y-92283575D01*
X178559801Y-92451562D01*
X178839153Y-92567274D01*
X179080794Y-92615339D01*
X178853557Y-92842576D01*
X178842089Y-92855742D01*
X178829084Y-92876972D01*
X178820470Y-92900331D01*
X178816579Y-92924921D01*
X178817560Y-92949798D01*
X178823376Y-92974006D01*
X178833802Y-92996614D01*
X178848439Y-93016753D01*
X180880439Y-95302753D01*
X180904803Y-95323976D01*
X180926759Y-95335712D01*
X180950584Y-95342939D01*
X180975360Y-95345379D01*
X181000136Y-95342939D01*
X181023961Y-95335712D01*
X181045917Y-95323976D01*
X181065163Y-95308182D01*
X183351163Y-93022182D01*
X183366957Y-93002936D01*
X183378693Y-92980980D01*
X183385920Y-92957155D01*
X183388360Y-92932379D01*
X183385920Y-92907603D01*
X183378693Y-92883778D01*
X183366957Y-92861822D01*
X183351163Y-92842576D01*
X182589163Y-92080576D01*
X182580663Y-92072815D01*
X181745592Y-91376922D01*
X181534132Y-91163337D01*
X181437441Y-91083984D01*
X181327127Y-91025020D01*
X181321124Y-91023199D01*
X181056663Y-90802815D01*
X181045917Y-90794782D01*
X181023961Y-90783046D01*
X181000136Y-90775819D01*
X180975360Y-90773379D01*
X180950584Y-90775819D01*
X180926759Y-90783046D01*
X180904803Y-90794782D01*
X180885557Y-90810576D01*
X180810972Y-90885161D01*
X180762907Y-90643520D01*
X180647195Y-90364168D01*
X180479208Y-90112758D01*
X180265401Y-89898951D01*
X180013991Y-89730964D01*
X179734639Y-89615252D01*
X179438080Y-89556263D01*
X179135712Y-89556263D01*
X178839153Y-89615252D01*
X178559801Y-89730964D01*
X178308391Y-89898951D01*
X178094584Y-90112758D01*
X177926597Y-90364168D01*
X177810885Y-90643520D01*
X177751896Y-90940079D01*
X163717072Y-90940079D01*
X163717072Y-90921000D01*
X163704812Y-90796518D01*
X163668502Y-90676820D01*
X163609537Y-90566506D01*
X163530185Y-90469815D01*
X163433494Y-90390463D01*
X163323180Y-90331498D01*
X163203482Y-90295188D01*
X163079000Y-90282928D01*
X161279000Y-90282928D01*
X161154518Y-90295188D01*
X161034820Y-90331498D01*
X160924506Y-90390463D01*
X160827815Y-90469815D01*
X160748463Y-90566506D01*
X160689498Y-90676820D01*
X160683944Y-90695127D01*
X160617505Y-90628688D01*
X160366095Y-90460701D01*
X160086743Y-90344989D01*
X159790184Y-90286000D01*
X159487816Y-90286000D01*
X159191257Y-90344989D01*
X158911905Y-90460701D01*
X158660495Y-90628688D01*
X158446688Y-90842495D01*
X158278701Y-91093905D01*
X158162989Y-91373257D01*
X158104000Y-91669816D01*
X140331511Y-91669816D01*
X140438064Y-91598620D01*
X140651871Y-91384813D01*
X140819858Y-91133403D01*
X140935570Y-90854051D01*
X140994559Y-90557492D01*
X140994559Y-90463533D01*
X141011430Y-90472551D01*
X141131128Y-90508861D01*
X141255610Y-90521121D01*
X141380092Y-90508861D01*
X141499790Y-90472551D01*
X141610104Y-90413586D01*
X141706795Y-90334234D01*
X142979587Y-89061442D01*
X143058939Y-88964751D01*
X143117904Y-88854437D01*
X143154214Y-88734739D01*
X143166474Y-88610257D01*
X143154214Y-88485775D01*
X143117904Y-88366077D01*
X143058939Y-88255763D01*
X142979587Y-88159072D01*
X141706795Y-86886280D01*
X141610104Y-86806928D01*
X141499790Y-86747963D01*
X141380092Y-86711653D01*
X141255610Y-86699393D01*
X141131128Y-86711653D01*
X141011430Y-86747963D01*
X140901116Y-86806928D01*
X140804425Y-86886280D01*
X139531633Y-88159072D01*
X139452281Y-88255763D01*
X139393316Y-88366077D01*
X139357006Y-88485775D01*
X139344746Y-88610257D01*
X139357006Y-88734739D01*
X139393316Y-88854437D01*
X139402334Y-88871308D01*
X139308375Y-88871308D01*
X139011816Y-88930297D01*
X138732464Y-89046009D01*
X138481054Y-89213996D01*
X138267247Y-89427803D01*
X138099260Y-89679213D01*
X137983548Y-89958565D01*
X137924559Y-90255124D01*
X127660000Y-90255124D01*
X127660000Y-84049816D01*
X158104000Y-84049816D01*
X158104000Y-84352184D01*
X158162989Y-84648743D01*
X158278701Y-84928095D01*
X158446688Y-85179505D01*
X158660495Y-85393312D01*
X158911905Y-85561299D01*
X159191257Y-85677011D01*
X159487816Y-85736000D01*
X159790184Y-85736000D01*
X160086743Y-85677011D01*
X160366095Y-85561299D01*
X160617505Y-85393312D01*
X160683944Y-85326873D01*
X160689498Y-85345180D01*
X160748463Y-85455494D01*
X160827815Y-85552185D01*
X160924506Y-85631537D01*
X161034820Y-85690502D01*
X161154518Y-85726812D01*
X161279000Y-85739072D01*
X163079000Y-85739072D01*
X163203482Y-85726812D01*
X163323180Y-85690502D01*
X163433494Y-85631537D01*
X163530185Y-85552185D01*
X163609537Y-85455494D01*
X163668502Y-85345180D01*
X163704812Y-85225482D01*
X163717072Y-85101000D01*
X163717072Y-83301000D01*
X163704812Y-83176518D01*
X163668502Y-83056820D01*
X163609537Y-82946506D01*
X163530185Y-82849815D01*
X163433494Y-82770463D01*
X163323180Y-82711498D01*
X163203482Y-82675188D01*
X163079000Y-82662928D01*
X161279000Y-82662928D01*
X161154518Y-82675188D01*
X161034820Y-82711498D01*
X160924506Y-82770463D01*
X160827815Y-82849815D01*
X160748463Y-82946506D01*
X160689498Y-83056820D01*
X160683944Y-83075127D01*
X160617505Y-83008688D01*
X160366095Y-82840701D01*
X160086743Y-82724989D01*
X159790184Y-82666000D01*
X159487816Y-82666000D01*
X159191257Y-82724989D01*
X158911905Y-82840701D01*
X158660495Y-83008688D01*
X158446688Y-83222495D01*
X158278701Y-83473905D01*
X158162989Y-83753257D01*
X158104000Y-84049816D01*
X127660000Y-84049816D01*
X127660000Y-79400000D01*
X189840000Y-79400000D01*
X189840001Y-114521572D01*
G37*
%TD.AperFunction*%
%TD*%
M02*
