%FSLAX45Y45*%
G04 Gerber Fmt 4.5, Leading zero omitted, Abs format (unit mm)*
G04 Created by KiCad (PCBNEW (5.1.9)-1) date 2025-04-10 23:31:55*
%MOMM*%
%LPD*%
G01*
G04 APERTURE LIST*
%TA.AperFunction,Profile*%
%ADD10C,0.050000*%
%TD*%
%ADD11C,0.200000*%
%ADD12C,0.300000*%
G04 APERTURE END LIST*
D10*
X19050000Y-7874000D02*
X19050000Y-11455400D01*
X12700000Y-7874000D02*
X19050000Y-7874000D01*
X12700000Y-14249400D02*
X12700000Y-7874000D01*
X19050000Y-14249400D02*
X12700000Y-14249400D01*
X19050000Y-11455400D02*
X19050000Y-14249400D01*
D11*
D12*
X12983928Y-14717614D02*
X12983928Y-14417614D01*
X13055357Y-14417614D01*
X13098214Y-14431900D01*
X13126786Y-14460471D01*
X13141071Y-14489043D01*
X13155357Y-14546186D01*
X13155357Y-14589043D01*
X13141071Y-14646186D01*
X13126786Y-14674757D01*
X13098214Y-14703329D01*
X13055357Y-14717614D01*
X12983928Y-14717614D01*
X13283928Y-14717614D02*
X13283928Y-14517614D01*
X13283928Y-14574757D02*
X13298214Y-14546186D01*
X13312500Y-14531900D01*
X13341071Y-14517614D01*
X13369643Y-14517614D01*
X13469643Y-14717614D02*
X13469643Y-14517614D01*
X13469643Y-14417614D02*
X13455357Y-14431900D01*
X13469643Y-14446186D01*
X13483928Y-14431900D01*
X13469643Y-14417614D01*
X13469643Y-14446186D01*
X13655357Y-14717614D02*
X13626786Y-14703329D01*
X13612500Y-14674757D01*
X13612500Y-14417614D01*
X13812500Y-14717614D02*
X13783928Y-14703329D01*
X13769643Y-14674757D01*
X13769643Y-14417614D01*
X14155357Y-14717614D02*
X14155357Y-14417614D01*
X14255357Y-14631900D01*
X14355357Y-14417614D01*
X14355357Y-14717614D01*
X14626786Y-14717614D02*
X14626786Y-14560471D01*
X14612500Y-14531900D01*
X14583928Y-14517614D01*
X14526786Y-14517614D01*
X14498214Y-14531900D01*
X14626786Y-14703329D02*
X14598214Y-14717614D01*
X14526786Y-14717614D01*
X14498214Y-14703329D01*
X14483928Y-14674757D01*
X14483928Y-14646186D01*
X14498214Y-14617614D01*
X14526786Y-14603329D01*
X14598214Y-14603329D01*
X14626786Y-14589043D01*
X14769643Y-14517614D02*
X14769643Y-14817614D01*
X14769643Y-14531900D02*
X14798214Y-14517614D01*
X14855357Y-14517614D01*
X14883928Y-14531900D01*
X14898214Y-14546186D01*
X14912500Y-14574757D01*
X14912500Y-14660471D01*
X14898214Y-14689043D01*
X14883928Y-14703329D01*
X14855357Y-14717614D01*
X14798214Y-14717614D01*
X14769643Y-14703329D01*
X15041071Y-14689043D02*
X15055357Y-14703329D01*
X15041071Y-14717614D01*
X15026786Y-14703329D01*
X15041071Y-14689043D01*
X15041071Y-14717614D01*
X15041071Y-14531900D02*
X15055357Y-14546186D01*
X15041071Y-14560471D01*
X15026786Y-14546186D01*
X15041071Y-14531900D01*
X15041071Y-14560471D01*
M02*
