%TF.GenerationSoftware,KiCad,Pcbnew,(5.1.9)-1*%
%TF.CreationDate,2025-04-10T23:46:23-06:00*%
%TF.ProjectId,LEDS,4c454453-2e6b-4696-9361-645f70636258,rev?*%
%TF.SameCoordinates,Original*%
%TF.FileFunction,Paste,Top*%
%TF.FilePolarity,Positive*%
%FSLAX46Y46*%
G04 Gerber Fmt 4.6, Leading zero omitted, Abs format (unit mm)*
G04 Created by KiCad (PCBNEW (5.1.9)-1) date 2025-04-10 23:46:23*
%MOMM*%
%LPD*%
G01*
G04 APERTURE LIST*
%ADD10R,3.300000X0.500000*%
%ADD11R,0.750000X1.010000*%
%ADD12C,0.100000*%
%ADD13R,1.010000X0.750000*%
%ADD14R,0.500000X3.300000*%
G04 APERTURE END LIST*
D10*
%TO.C,D9*%
X172974000Y-111249000D03*
X172974000Y-114049000D03*
D11*
X173974000Y-112649000D03*
X171974000Y-112649000D03*
X172974000Y-112649000D03*
%TD*%
D12*
%TO.C,D10*%
G36*
X168316188Y-123398575D02*
G01*
X167785858Y-122868245D01*
X168500036Y-122154067D01*
X169030366Y-122684397D01*
X168316188Y-123398575D01*
G37*
G36*
X167609081Y-122691468D02*
G01*
X167078751Y-122161138D01*
X167792929Y-121446960D01*
X168323259Y-121977290D01*
X167609081Y-122691468D01*
G37*
G36*
X169023295Y-124105682D02*
G01*
X168492965Y-123575352D01*
X169207143Y-122861174D01*
X169737473Y-123391504D01*
X169023295Y-124105682D01*
G37*
G36*
X168408112Y-125109773D02*
G01*
X166074660Y-122776321D01*
X166428214Y-122422767D01*
X168761666Y-124756219D01*
X168408112Y-125109773D01*
G37*
G36*
X170388010Y-123129875D02*
G01*
X168054558Y-120796423D01*
X168408112Y-120442869D01*
X170741564Y-122776321D01*
X170388010Y-123129875D01*
G37*
%TD*%
D13*
%TO.C,D11*%
X156591000Y-124968000D03*
X156591000Y-123968000D03*
X156591000Y-125968000D03*
D14*
X155191000Y-124968000D03*
X157991000Y-124968000D03*
%TD*%
D12*
%TO.C,D12*%
G36*
X145785129Y-120203391D02*
G01*
X146315459Y-119673061D01*
X147029637Y-120387239D01*
X146499307Y-120917569D01*
X145785129Y-120203391D01*
G37*
G36*
X146492236Y-119496284D02*
G01*
X147022566Y-118965954D01*
X147736744Y-119680132D01*
X147206414Y-120210462D01*
X146492236Y-119496284D01*
G37*
G36*
X145078022Y-120910498D02*
G01*
X145608352Y-120380168D01*
X146322530Y-121094346D01*
X145792200Y-121624676D01*
X145078022Y-120910498D01*
G37*
G36*
X144073931Y-120295315D02*
G01*
X146407383Y-117961863D01*
X146760937Y-118315417D01*
X144427485Y-120648869D01*
X144073931Y-120295315D01*
G37*
G36*
X146053829Y-122275213D02*
G01*
X148387281Y-119941761D01*
X148740835Y-120295315D01*
X146407383Y-122628767D01*
X146053829Y-122275213D01*
G37*
%TD*%
D10*
%TO.C,D13*%
X144526000Y-109731000D03*
X144526000Y-106931000D03*
D11*
X143526000Y-108331000D03*
X145526000Y-108331000D03*
X144526000Y-108331000D03*
%TD*%
D12*
%TO.C,D14*%
G36*
X146908930Y-97685972D02*
G01*
X149242382Y-100019424D01*
X148888828Y-100372978D01*
X146555376Y-98039526D01*
X146908930Y-97685972D01*
G37*
G36*
X148888828Y-95706074D02*
G01*
X151222280Y-98039526D01*
X150868726Y-98393080D01*
X148535274Y-96059628D01*
X148888828Y-95706074D01*
G37*
G36*
X148273645Y-96710165D02*
G01*
X148803975Y-97240495D01*
X148089797Y-97954673D01*
X147559467Y-97424343D01*
X148273645Y-96710165D01*
G37*
G36*
X149687859Y-98124379D02*
G01*
X150218189Y-98654709D01*
X149504011Y-99368887D01*
X148973681Y-98838557D01*
X149687859Y-98124379D01*
G37*
G36*
X148980752Y-97417272D02*
G01*
X149511082Y-97947602D01*
X148796904Y-98661780D01*
X148266574Y-98131450D01*
X148980752Y-97417272D01*
G37*
%TD*%
D14*
%TO.C,D15*%
X159509000Y-96266000D03*
X162309000Y-96266000D03*
D13*
X160909000Y-95266000D03*
X160909000Y-97266000D03*
X160909000Y-96266000D03*
%TD*%
D12*
%TO.C,D16*%
G36*
X172275932Y-100612455D02*
G01*
X171745602Y-101142785D01*
X171031424Y-100428607D01*
X171561754Y-99898277D01*
X172275932Y-100612455D01*
G37*
G36*
X171568825Y-101319562D02*
G01*
X171038495Y-101849892D01*
X170324317Y-101135714D01*
X170854647Y-100605384D01*
X171568825Y-101319562D01*
G37*
G36*
X172983039Y-99905348D02*
G01*
X172452709Y-100435678D01*
X171738531Y-99721500D01*
X172268861Y-99191170D01*
X172983039Y-99905348D01*
G37*
G36*
X173987130Y-100520531D02*
G01*
X171653678Y-102853983D01*
X171300124Y-102500429D01*
X173633576Y-100166977D01*
X173987130Y-100520531D01*
G37*
G36*
X172007232Y-98540633D02*
G01*
X169673780Y-100874085D01*
X169320226Y-100520531D01*
X171653678Y-98187079D01*
X172007232Y-98540633D01*
G37*
%TD*%
D11*
%TO.C,D25*%
X180594000Y-112649000D03*
X179594000Y-112649000D03*
X181594000Y-112649000D03*
D10*
X180594000Y-114049000D03*
X180594000Y-111249000D03*
%TD*%
D12*
%TO.C,D26*%
G36*
X175776163Y-128518029D02*
G01*
X173442711Y-126184577D01*
X173796265Y-125831023D01*
X176129717Y-128164475D01*
X175776163Y-128518029D01*
G37*
G36*
X173796265Y-130497927D02*
G01*
X171462813Y-128164475D01*
X171816367Y-127810921D01*
X174149819Y-130144373D01*
X173796265Y-130497927D01*
G37*
G36*
X174411448Y-129493836D02*
G01*
X173881118Y-128963506D01*
X174595296Y-128249328D01*
X175125626Y-128779658D01*
X174411448Y-129493836D01*
G37*
G36*
X172997234Y-128079622D02*
G01*
X172466904Y-127549292D01*
X173181082Y-126835114D01*
X173711412Y-127365444D01*
X172997234Y-128079622D01*
G37*
G36*
X173704341Y-128786729D02*
G01*
X173174011Y-128256399D01*
X173888189Y-127542221D01*
X174418519Y-128072551D01*
X173704341Y-128786729D01*
G37*
%TD*%
D14*
%TO.C,D27*%
X157991000Y-132588000D03*
X155191000Y-132588000D03*
D13*
X156591000Y-133588000D03*
X156591000Y-131588000D03*
X156591000Y-132588000D03*
%TD*%
D12*
%TO.C,D28*%
G36*
X140396975Y-125591545D02*
G01*
X140927305Y-125061215D01*
X141641483Y-125775393D01*
X141111153Y-126305723D01*
X140396975Y-125591545D01*
G37*
G36*
X141104082Y-124884438D02*
G01*
X141634412Y-124354108D01*
X142348590Y-125068286D01*
X141818260Y-125598616D01*
X141104082Y-124884438D01*
G37*
G36*
X139689868Y-126298652D02*
G01*
X140220198Y-125768322D01*
X140934376Y-126482500D01*
X140404046Y-127012830D01*
X139689868Y-126298652D01*
G37*
G36*
X138685777Y-125683469D02*
G01*
X141019229Y-123350017D01*
X141372783Y-123703571D01*
X139039331Y-126037023D01*
X138685777Y-125683469D01*
G37*
G36*
X140665675Y-127663367D02*
G01*
X142999127Y-125329915D01*
X143352681Y-125683469D01*
X141019229Y-128016921D01*
X140665675Y-127663367D01*
G37*
%TD*%
D10*
%TO.C,D29*%
X136906000Y-109731000D03*
X136906000Y-106931000D03*
D11*
X135906000Y-108331000D03*
X137906000Y-108331000D03*
X136906000Y-108331000D03*
%TD*%
D12*
%TO.C,D30*%
G36*
X141520776Y-92297818D02*
G01*
X143854228Y-94631270D01*
X143500674Y-94984824D01*
X141167222Y-92651372D01*
X141520776Y-92297818D01*
G37*
G36*
X143500674Y-90317920D02*
G01*
X145834126Y-92651372D01*
X145480572Y-93004926D01*
X143147120Y-90671474D01*
X143500674Y-90317920D01*
G37*
G36*
X142885491Y-91322011D02*
G01*
X143415821Y-91852341D01*
X142701643Y-92566519D01*
X142171313Y-92036189D01*
X142885491Y-91322011D01*
G37*
G36*
X144299705Y-92736225D02*
G01*
X144830035Y-93266555D01*
X144115857Y-93980733D01*
X143585527Y-93450403D01*
X144299705Y-92736225D01*
G37*
G36*
X143592598Y-92029118D02*
G01*
X144122928Y-92559448D01*
X143408750Y-93273626D01*
X142878420Y-92743296D01*
X143592598Y-92029118D01*
G37*
%TD*%
D13*
%TO.C,D31*%
X160909000Y-88646000D03*
X160909000Y-89646000D03*
X160909000Y-87646000D03*
D14*
X162309000Y-88646000D03*
X159509000Y-88646000D03*
%TD*%
D12*
%TO.C,D32*%
G36*
X177395386Y-93152480D02*
G01*
X175061934Y-95485932D01*
X174708380Y-95132378D01*
X177041832Y-92798926D01*
X177395386Y-93152480D01*
G37*
G36*
X179375284Y-95132378D02*
G01*
X177041832Y-97465830D01*
X176688278Y-97112276D01*
X179021730Y-94778824D01*
X179375284Y-95132378D01*
G37*
G36*
X178371193Y-94517195D02*
G01*
X177840863Y-95047525D01*
X177126685Y-94333347D01*
X177657015Y-93803017D01*
X178371193Y-94517195D01*
G37*
G36*
X176956979Y-95931409D02*
G01*
X176426649Y-96461739D01*
X175712471Y-95747561D01*
X176242801Y-95217231D01*
X176956979Y-95931409D01*
G37*
G36*
X177664086Y-95224302D02*
G01*
X177133756Y-95754632D01*
X176419578Y-95040454D01*
X176949908Y-94510124D01*
X177664086Y-95224302D01*
G37*
%TD*%
D11*
%TO.C,D41*%
X188214000Y-112649000D03*
X187214000Y-112649000D03*
X189214000Y-112649000D03*
D10*
X188214000Y-114049000D03*
X188214000Y-111249000D03*
%TD*%
D12*
%TO.C,D42*%
G36*
X181166438Y-133904061D02*
G01*
X178832986Y-131570609D01*
X179186540Y-131217055D01*
X181519992Y-133550507D01*
X181166438Y-133904061D01*
G37*
G36*
X179186540Y-135883959D02*
G01*
X176853088Y-133550507D01*
X177206642Y-133196953D01*
X179540094Y-135530405D01*
X179186540Y-135883959D01*
G37*
G36*
X179801723Y-134879868D02*
G01*
X179271393Y-134349538D01*
X179985571Y-133635360D01*
X180515901Y-134165690D01*
X179801723Y-134879868D01*
G37*
G36*
X178387509Y-133465654D02*
G01*
X177857179Y-132935324D01*
X178571357Y-132221146D01*
X179101687Y-132751476D01*
X178387509Y-133465654D01*
G37*
G36*
X179094616Y-134172761D02*
G01*
X178564286Y-133642431D01*
X179278464Y-132928253D01*
X179808794Y-133458583D01*
X179094616Y-134172761D01*
G37*
%TD*%
D13*
%TO.C,D43*%
X156594000Y-140208000D03*
X156594000Y-139208000D03*
X156594000Y-141208000D03*
D14*
X155194000Y-140208000D03*
X157994000Y-140208000D03*
%TD*%
D12*
%TO.C,D44*%
G36*
X135006700Y-130977577D02*
G01*
X135537030Y-130447247D01*
X136251208Y-131161425D01*
X135720878Y-131691755D01*
X135006700Y-130977577D01*
G37*
G36*
X135713807Y-130270470D02*
G01*
X136244137Y-129740140D01*
X136958315Y-130454318D01*
X136427985Y-130984648D01*
X135713807Y-130270470D01*
G37*
G36*
X134299593Y-131684684D02*
G01*
X134829923Y-131154354D01*
X135544101Y-131868532D01*
X135013771Y-132398862D01*
X134299593Y-131684684D01*
G37*
G36*
X133295502Y-131069501D02*
G01*
X135628954Y-128736049D01*
X135982508Y-129089603D01*
X133649056Y-131423055D01*
X133295502Y-131069501D01*
G37*
G36*
X135275400Y-133049399D02*
G01*
X137608852Y-130715947D01*
X137962406Y-131069501D01*
X135628954Y-133402953D01*
X135275400Y-133049399D01*
G37*
%TD*%
D11*
%TO.C,D45*%
X129286000Y-108328000D03*
X130286000Y-108328000D03*
X128286000Y-108328000D03*
D10*
X129286000Y-106928000D03*
X129286000Y-109728000D03*
%TD*%
D12*
%TO.C,D46*%
G36*
X136134744Y-86907543D02*
G01*
X138468196Y-89240995D01*
X138114642Y-89594549D01*
X135781190Y-87261097D01*
X136134744Y-86907543D01*
G37*
G36*
X138114642Y-84927645D02*
G01*
X140448094Y-87261097D01*
X140094540Y-87614651D01*
X137761088Y-85281199D01*
X138114642Y-84927645D01*
G37*
G36*
X137499459Y-85931736D02*
G01*
X138029789Y-86462066D01*
X137315611Y-87176244D01*
X136785281Y-86645914D01*
X137499459Y-85931736D01*
G37*
G36*
X138913673Y-87345950D02*
G01*
X139444003Y-87876280D01*
X138729825Y-88590458D01*
X138199495Y-88060128D01*
X138913673Y-87345950D01*
G37*
G36*
X138206566Y-86638843D02*
G01*
X138736896Y-87169173D01*
X138022718Y-87883351D01*
X137492388Y-87353021D01*
X138206566Y-86638843D01*
G37*
%TD*%
D13*
%TO.C,D47*%
X161036000Y-81026000D03*
X161036000Y-82026000D03*
X161036000Y-80026000D03*
D14*
X162436000Y-81026000D03*
X159636000Y-81026000D03*
%TD*%
D12*
%TO.C,D48*%
G36*
X182783539Y-87764326D02*
G01*
X180450087Y-90097778D01*
X180096533Y-89744224D01*
X182429985Y-87410772D01*
X182783539Y-87764326D01*
G37*
G36*
X184763437Y-89744224D02*
G01*
X182429985Y-92077676D01*
X182076431Y-91724122D01*
X184409883Y-89390670D01*
X184763437Y-89744224D01*
G37*
G36*
X183759346Y-89129041D02*
G01*
X183229016Y-89659371D01*
X182514838Y-88945193D01*
X183045168Y-88414863D01*
X183759346Y-89129041D01*
G37*
G36*
X182345132Y-90543255D02*
G01*
X181814802Y-91073585D01*
X181100624Y-90359407D01*
X181630954Y-89829077D01*
X182345132Y-90543255D01*
G37*
G36*
X183052239Y-89836148D02*
G01*
X182521909Y-90366478D01*
X181807731Y-89652300D01*
X182338061Y-89121970D01*
X183052239Y-89836148D01*
G37*
%TD*%
%TO.C,R1*%
G36*
G01*
X172523999Y-108858000D02*
X173424001Y-108858000D01*
G75*
G02*
X173674000Y-109107999I0J-249999D01*
G01*
X173674000Y-109808001D01*
G75*
G02*
X173424001Y-110058000I-249999J0D01*
G01*
X172523999Y-110058000D01*
G75*
G02*
X172274000Y-109808001I0J249999D01*
G01*
X172274000Y-109107999D01*
G75*
G02*
X172523999Y-108858000I249999J0D01*
G01*
G37*
G36*
G01*
X172523999Y-106858000D02*
X173424001Y-106858000D01*
G75*
G02*
X173674000Y-107107999I0J-249999D01*
G01*
X173674000Y-107808001D01*
G75*
G02*
X173424001Y-108058000I-249999J0D01*
G01*
X172523999Y-108058000D01*
G75*
G02*
X172274000Y-107808001I0J249999D01*
G01*
X172274000Y-107107999D01*
G75*
G02*
X172523999Y-106858000I249999J0D01*
G01*
G37*
%TD*%
%TO.C,R2*%
G36*
G01*
X172184768Y-118363267D02*
X172821166Y-118999665D01*
G75*
G02*
X172821166Y-119353217I-176776J-176776D01*
G01*
X172326190Y-119848193D01*
G75*
G02*
X171972638Y-119848193I-176776J176776D01*
G01*
X171336240Y-119211795D01*
G75*
G02*
X171336240Y-118858243I176776J176776D01*
G01*
X171831216Y-118363267D01*
G75*
G02*
X172184768Y-118363267I176776J-176776D01*
G01*
G37*
G36*
G01*
X170770554Y-119777481D02*
X171406952Y-120413879D01*
G75*
G02*
X171406952Y-120767431I-176776J-176776D01*
G01*
X170911976Y-121262407D01*
G75*
G02*
X170558424Y-121262407I-176776J176776D01*
G01*
X169922026Y-120626009D01*
G75*
G02*
X169922026Y-120272457I176776J176776D01*
G01*
X170417002Y-119777481D01*
G75*
G02*
X170770554Y-119777481I176776J-176776D01*
G01*
G37*
%TD*%
%TO.C,R3*%
G36*
G01*
X160382000Y-124517999D02*
X160382000Y-125418001D01*
G75*
G02*
X160132001Y-125668000I-249999J0D01*
G01*
X159431999Y-125668000D01*
G75*
G02*
X159182000Y-125418001I0J249999D01*
G01*
X159182000Y-124517999D01*
G75*
G02*
X159431999Y-124268000I249999J0D01*
G01*
X160132001Y-124268000D01*
G75*
G02*
X160382000Y-124517999I0J-249999D01*
G01*
G37*
G36*
G01*
X162382000Y-124517999D02*
X162382000Y-125418001D01*
G75*
G02*
X162132001Y-125668000I-249999J0D01*
G01*
X161431999Y-125668000D01*
G75*
G02*
X161182000Y-125418001I0J249999D01*
G01*
X161182000Y-124517999D01*
G75*
G02*
X161431999Y-124268000I249999J0D01*
G01*
X162132001Y-124268000D01*
G75*
G02*
X162382000Y-124517999I0J-249999D01*
G01*
G37*
%TD*%
%TO.C,R4*%
G36*
G01*
X149406223Y-122657758D02*
X148769825Y-123294156D01*
G75*
G02*
X148416273Y-123294156I-176776J176776D01*
G01*
X147921297Y-122799180D01*
G75*
G02*
X147921297Y-122445628I176776J176776D01*
G01*
X148557695Y-121809230D01*
G75*
G02*
X148911247Y-121809230I176776J-176776D01*
G01*
X149406223Y-122304206D01*
G75*
G02*
X149406223Y-122657758I-176776J-176776D01*
G01*
G37*
G36*
G01*
X150820437Y-124071972D02*
X150184039Y-124708370D01*
G75*
G02*
X149830487Y-124708370I-176776J176776D01*
G01*
X149335511Y-124213394D01*
G75*
G02*
X149335511Y-123859842I176776J176776D01*
G01*
X149971909Y-123223444D01*
G75*
G02*
X150325461Y-123223444I176776J-176776D01*
G01*
X150820437Y-123718420D01*
G75*
G02*
X150820437Y-124071972I-176776J-176776D01*
G01*
G37*
%TD*%
%TO.C,R5*%
G36*
G01*
X144976001Y-114122000D02*
X144075999Y-114122000D01*
G75*
G02*
X143826000Y-113872001I0J249999D01*
G01*
X143826000Y-113171999D01*
G75*
G02*
X144075999Y-112922000I249999J0D01*
G01*
X144976001Y-112922000D01*
G75*
G02*
X145226000Y-113171999I0J-249999D01*
G01*
X145226000Y-113872001D01*
G75*
G02*
X144976001Y-114122000I-249999J0D01*
G01*
G37*
G36*
G01*
X144976001Y-112122000D02*
X144075999Y-112122000D01*
G75*
G02*
X143826000Y-111872001I0J249999D01*
G01*
X143826000Y-111171999D01*
G75*
G02*
X144075999Y-110922000I249999J0D01*
G01*
X144976001Y-110922000D01*
G75*
G02*
X145226000Y-111171999I0J-249999D01*
G01*
X145226000Y-111872001D01*
G75*
G02*
X144976001Y-112122000I-249999J0D01*
G01*
G37*
%TD*%
%TO.C,R6*%
G36*
G01*
X146526385Y-101038366D02*
X145889987Y-100401968D01*
G75*
G02*
X145889987Y-100048416I176776J176776D01*
G01*
X146384963Y-99553440D01*
G75*
G02*
X146738515Y-99553440I176776J-176776D01*
G01*
X147374913Y-100189838D01*
G75*
G02*
X147374913Y-100543390I-176776J-176776D01*
G01*
X146879937Y-101038366D01*
G75*
G02*
X146526385Y-101038366I-176776J176776D01*
G01*
G37*
G36*
G01*
X145112171Y-102452580D02*
X144475773Y-101816182D01*
G75*
G02*
X144475773Y-101462630I176776J176776D01*
G01*
X144970749Y-100967654D01*
G75*
G02*
X145324301Y-100967654I176776J-176776D01*
G01*
X145960699Y-101604052D01*
G75*
G02*
X145960699Y-101957604I-176776J-176776D01*
G01*
X145465723Y-102452580D01*
G75*
G02*
X145112171Y-102452580I-176776J176776D01*
G01*
G37*
%TD*%
%TO.C,R7*%
G36*
G01*
X155118000Y-96716001D02*
X155118000Y-95815999D01*
G75*
G02*
X155367999Y-95566000I249999J0D01*
G01*
X156068001Y-95566000D01*
G75*
G02*
X156318000Y-95815999I0J-249999D01*
G01*
X156318000Y-96716001D01*
G75*
G02*
X156068001Y-96966000I-249999J0D01*
G01*
X155367999Y-96966000D01*
G75*
G02*
X155118000Y-96716001I0J249999D01*
G01*
G37*
G36*
G01*
X157118000Y-96716001D02*
X157118000Y-95815999D01*
G75*
G02*
X157367999Y-95566000I249999J0D01*
G01*
X158068001Y-95566000D01*
G75*
G02*
X158318000Y-95815999I0J-249999D01*
G01*
X158318000Y-96716001D01*
G75*
G02*
X158068001Y-96966000I-249999J0D01*
G01*
X157367999Y-96966000D01*
G75*
G02*
X157118000Y-96716001I0J249999D01*
G01*
G37*
%TD*%
%TO.C,R8*%
G36*
G01*
X167240624Y-96743875D02*
X167877022Y-96107477D01*
G75*
G02*
X168230574Y-96107477I176776J-176776D01*
G01*
X168725550Y-96602453D01*
G75*
G02*
X168725550Y-96956005I-176776J-176776D01*
G01*
X168089152Y-97592403D01*
G75*
G02*
X167735600Y-97592403I-176776J176776D01*
G01*
X167240624Y-97097427D01*
G75*
G02*
X167240624Y-96743875I176776J176776D01*
G01*
G37*
G36*
G01*
X168654838Y-98158089D02*
X169291236Y-97521691D01*
G75*
G02*
X169644788Y-97521691I176776J-176776D01*
G01*
X170139764Y-98016667D01*
G75*
G02*
X170139764Y-98370219I-176776J-176776D01*
G01*
X169503366Y-99006617D01*
G75*
G02*
X169149814Y-99006617I-176776J176776D01*
G01*
X168654838Y-98511641D01*
G75*
G02*
X168654838Y-98158089I176776J176776D01*
G01*
G37*
%TD*%
%TO.C,R9*%
G36*
G01*
X180143999Y-108858000D02*
X181044001Y-108858000D01*
G75*
G02*
X181294000Y-109107999I0J-249999D01*
G01*
X181294000Y-109808001D01*
G75*
G02*
X181044001Y-110058000I-249999J0D01*
G01*
X180143999Y-110058000D01*
G75*
G02*
X179894000Y-109808001I0J249999D01*
G01*
X179894000Y-109107999D01*
G75*
G02*
X180143999Y-108858000I249999J0D01*
G01*
G37*
G36*
G01*
X180143999Y-106858000D02*
X181044001Y-106858000D01*
G75*
G02*
X181294000Y-107107999I0J-249999D01*
G01*
X181294000Y-107808001D01*
G75*
G02*
X181044001Y-108058000I-249999J0D01*
G01*
X180143999Y-108058000D01*
G75*
G02*
X179894000Y-107808001I0J249999D01*
G01*
X179894000Y-107107999D01*
G75*
G02*
X180143999Y-106858000I249999J0D01*
G01*
G37*
%TD*%
%TO.C,R10*%
G36*
G01*
X176158708Y-125165634D02*
X176795106Y-125802032D01*
G75*
G02*
X176795106Y-126155584I-176776J-176776D01*
G01*
X176300130Y-126650560D01*
G75*
G02*
X175946578Y-126650560I-176776J176776D01*
G01*
X175310180Y-126014162D01*
G75*
G02*
X175310180Y-125660610I176776J176776D01*
G01*
X175805156Y-125165634D01*
G75*
G02*
X176158708Y-125165634I176776J-176776D01*
G01*
G37*
G36*
G01*
X177572922Y-123751420D02*
X178209320Y-124387818D01*
G75*
G02*
X178209320Y-124741370I-176776J-176776D01*
G01*
X177714344Y-125236346D01*
G75*
G02*
X177360792Y-125236346I-176776J176776D01*
G01*
X176724394Y-124599948D01*
G75*
G02*
X176724394Y-124246396I176776J176776D01*
G01*
X177219370Y-123751420D01*
G75*
G02*
X177572922Y-123751420I176776J-176776D01*
G01*
G37*
%TD*%
%TO.C,R11*%
G36*
G01*
X160382000Y-132137999D02*
X160382000Y-133038001D01*
G75*
G02*
X160132001Y-133288000I-249999J0D01*
G01*
X159431999Y-133288000D01*
G75*
G02*
X159182000Y-133038001I0J249999D01*
G01*
X159182000Y-132137999D01*
G75*
G02*
X159431999Y-131888000I249999J0D01*
G01*
X160132001Y-131888000D01*
G75*
G02*
X160382000Y-132137999I0J-249999D01*
G01*
G37*
G36*
G01*
X162382000Y-132137999D02*
X162382000Y-133038001D01*
G75*
G02*
X162132001Y-133288000I-249999J0D01*
G01*
X161431999Y-133288000D01*
G75*
G02*
X161182000Y-133038001I0J249999D01*
G01*
X161182000Y-132137999D01*
G75*
G02*
X161431999Y-131888000I249999J0D01*
G01*
X162132001Y-131888000D01*
G75*
G02*
X162382000Y-132137999I0J-249999D01*
G01*
G37*
%TD*%
%TO.C,R12*%
G36*
G01*
X145432283Y-129460125D02*
X144795885Y-130096523D01*
G75*
G02*
X144442333Y-130096523I-176776J176776D01*
G01*
X143947357Y-129601547D01*
G75*
G02*
X143947357Y-129247995I176776J176776D01*
G01*
X144583755Y-128611597D01*
G75*
G02*
X144937307Y-128611597I176776J-176776D01*
G01*
X145432283Y-129106573D01*
G75*
G02*
X145432283Y-129460125I-176776J-176776D01*
G01*
G37*
G36*
G01*
X144018069Y-128045911D02*
X143381671Y-128682309D01*
G75*
G02*
X143028119Y-128682309I-176776J176776D01*
G01*
X142533143Y-128187333D01*
G75*
G02*
X142533143Y-127833781I176776J176776D01*
G01*
X143169541Y-127197383D01*
G75*
G02*
X143523093Y-127197383I176776J-176776D01*
G01*
X144018069Y-127692359D01*
G75*
G02*
X144018069Y-128045911I-176776J-176776D01*
G01*
G37*
%TD*%
%TO.C,R13*%
G36*
G01*
X137356001Y-112122000D02*
X136455999Y-112122000D01*
G75*
G02*
X136206000Y-111872001I0J249999D01*
G01*
X136206000Y-111171999D01*
G75*
G02*
X136455999Y-110922000I249999J0D01*
G01*
X137356001Y-110922000D01*
G75*
G02*
X137606000Y-111171999I0J-249999D01*
G01*
X137606000Y-111872001D01*
G75*
G02*
X137356001Y-112122000I-249999J0D01*
G01*
G37*
G36*
G01*
X137356001Y-114122000D02*
X136455999Y-114122000D01*
G75*
G02*
X136206000Y-113872001I0J249999D01*
G01*
X136206000Y-113171999D01*
G75*
G02*
X136455999Y-112922000I249999J0D01*
G01*
X137356001Y-112922000D01*
G75*
G02*
X137606000Y-113171999I0J-249999D01*
G01*
X137606000Y-113872001D01*
G75*
G02*
X137356001Y-114122000I-249999J0D01*
G01*
G37*
%TD*%
%TO.C,R14*%
G36*
G01*
X139724018Y-97064426D02*
X139087620Y-96428028D01*
G75*
G02*
X139087620Y-96074476I176776J176776D01*
G01*
X139582596Y-95579500D01*
G75*
G02*
X139936148Y-95579500I176776J-176776D01*
G01*
X140572546Y-96215898D01*
G75*
G02*
X140572546Y-96569450I-176776J-176776D01*
G01*
X140077570Y-97064426D01*
G75*
G02*
X139724018Y-97064426I-176776J176776D01*
G01*
G37*
G36*
G01*
X141138232Y-95650212D02*
X140501834Y-95013814D01*
G75*
G02*
X140501834Y-94660262I176776J176776D01*
G01*
X140996810Y-94165286D01*
G75*
G02*
X141350362Y-94165286I176776J-176776D01*
G01*
X141986760Y-94801684D01*
G75*
G02*
X141986760Y-95155236I-176776J-176776D01*
G01*
X141491784Y-95650212D01*
G75*
G02*
X141138232Y-95650212I-176776J176776D01*
G01*
G37*
%TD*%
%TO.C,R15*%
G36*
G01*
X155118000Y-89096001D02*
X155118000Y-88195999D01*
G75*
G02*
X155367999Y-87946000I249999J0D01*
G01*
X156068001Y-87946000D01*
G75*
G02*
X156318000Y-88195999I0J-249999D01*
G01*
X156318000Y-89096001D01*
G75*
G02*
X156068001Y-89346000I-249999J0D01*
G01*
X155367999Y-89346000D01*
G75*
G02*
X155118000Y-89096001I0J249999D01*
G01*
G37*
G36*
G01*
X157118000Y-89096001D02*
X157118000Y-88195999D01*
G75*
G02*
X157367999Y-87946000I249999J0D01*
G01*
X158068001Y-87946000D01*
G75*
G02*
X158318000Y-88195999I0J-249999D01*
G01*
X158318000Y-89096001D01*
G75*
G02*
X158068001Y-89346000I-249999J0D01*
G01*
X157367999Y-89346000D01*
G75*
G02*
X157118000Y-89096001I0J249999D01*
G01*
G37*
%TD*%
%TO.C,R16*%
G36*
G01*
X174042991Y-92769935D02*
X174679389Y-92133537D01*
G75*
G02*
X175032941Y-92133537I176776J-176776D01*
G01*
X175527917Y-92628513D01*
G75*
G02*
X175527917Y-92982065I-176776J-176776D01*
G01*
X174891519Y-93618463D01*
G75*
G02*
X174537967Y-93618463I-176776J176776D01*
G01*
X174042991Y-93123487D01*
G75*
G02*
X174042991Y-92769935I176776J176776D01*
G01*
G37*
G36*
G01*
X172628777Y-91355721D02*
X173265175Y-90719323D01*
G75*
G02*
X173618727Y-90719323I176776J-176776D01*
G01*
X174113703Y-91214299D01*
G75*
G02*
X174113703Y-91567851I-176776J-176776D01*
G01*
X173477305Y-92204249D01*
G75*
G02*
X173123753Y-92204249I-176776J176776D01*
G01*
X172628777Y-91709273D01*
G75*
G02*
X172628777Y-91355721I176776J176776D01*
G01*
G37*
%TD*%
%TO.C,R17*%
G36*
G01*
X187763999Y-108858000D02*
X188664001Y-108858000D01*
G75*
G02*
X188914000Y-109107999I0J-249999D01*
G01*
X188914000Y-109808001D01*
G75*
G02*
X188664001Y-110058000I-249999J0D01*
G01*
X187763999Y-110058000D01*
G75*
G02*
X187514000Y-109808001I0J249999D01*
G01*
X187514000Y-109107999D01*
G75*
G02*
X187763999Y-108858000I249999J0D01*
G01*
G37*
G36*
G01*
X187763999Y-106858000D02*
X188664001Y-106858000D01*
G75*
G02*
X188914000Y-107107999I0J-249999D01*
G01*
X188914000Y-107808001D01*
G75*
G02*
X188664001Y-108058000I-249999J0D01*
G01*
X187763999Y-108058000D01*
G75*
G02*
X187514000Y-107808001I0J249999D01*
G01*
X187514000Y-107107999D01*
G75*
G02*
X187763999Y-106858000I249999J0D01*
G01*
G37*
%TD*%
%TO.C,R18*%
G36*
G01*
X182961075Y-129139574D02*
X183597473Y-129775972D01*
G75*
G02*
X183597473Y-130129524I-176776J-176776D01*
G01*
X183102497Y-130624500D01*
G75*
G02*
X182748945Y-130624500I-176776J176776D01*
G01*
X182112547Y-129988102D01*
G75*
G02*
X182112547Y-129634550I176776J176776D01*
G01*
X182607523Y-129139574D01*
G75*
G02*
X182961075Y-129139574I176776J-176776D01*
G01*
G37*
G36*
G01*
X181546861Y-130553788D02*
X182183259Y-131190186D01*
G75*
G02*
X182183259Y-131543738I-176776J-176776D01*
G01*
X181688283Y-132038714D01*
G75*
G02*
X181334731Y-132038714I-176776J176776D01*
G01*
X180698333Y-131402316D01*
G75*
G02*
X180698333Y-131048764I176776J176776D01*
G01*
X181193309Y-130553788D01*
G75*
G02*
X181546861Y-130553788I176776J-176776D01*
G01*
G37*
%TD*%
%TO.C,R19*%
G36*
G01*
X160382000Y-139757999D02*
X160382000Y-140658001D01*
G75*
G02*
X160132001Y-140908000I-249999J0D01*
G01*
X159431999Y-140908000D01*
G75*
G02*
X159182000Y-140658001I0J249999D01*
G01*
X159182000Y-139757999D01*
G75*
G02*
X159431999Y-139508000I249999J0D01*
G01*
X160132001Y-139508000D01*
G75*
G02*
X160382000Y-139757999I0J-249999D01*
G01*
G37*
G36*
G01*
X162382000Y-139757999D02*
X162382000Y-140658001D01*
G75*
G02*
X162132001Y-140908000I-249999J0D01*
G01*
X161431999Y-140908000D01*
G75*
G02*
X161182000Y-140658001I0J249999D01*
G01*
X161182000Y-139757999D01*
G75*
G02*
X161431999Y-139508000I249999J0D01*
G01*
X162132001Y-139508000D01*
G75*
G02*
X162382000Y-139757999I0J-249999D01*
G01*
G37*
%TD*%
%TO.C,R20*%
G36*
G01*
X140044130Y-134848279D02*
X139407732Y-135484677D01*
G75*
G02*
X139054180Y-135484677I-176776J176776D01*
G01*
X138559204Y-134989701D01*
G75*
G02*
X138559204Y-134636149I176776J176776D01*
G01*
X139195602Y-133999751D01*
G75*
G02*
X139549154Y-133999751I176776J-176776D01*
G01*
X140044130Y-134494727D01*
G75*
G02*
X140044130Y-134848279I-176776J-176776D01*
G01*
G37*
G36*
G01*
X138629916Y-133434065D02*
X137993518Y-134070463D01*
G75*
G02*
X137639966Y-134070463I-176776J176776D01*
G01*
X137144990Y-133575487D01*
G75*
G02*
X137144990Y-133221935I176776J176776D01*
G01*
X137781388Y-132585537D01*
G75*
G02*
X138134940Y-132585537I176776J-176776D01*
G01*
X138629916Y-133080513D01*
G75*
G02*
X138629916Y-133434065I-176776J-176776D01*
G01*
G37*
%TD*%
%TO.C,R21*%
G36*
G01*
X129736001Y-114122000D02*
X128835999Y-114122000D01*
G75*
G02*
X128586000Y-113872001I0J249999D01*
G01*
X128586000Y-113171999D01*
G75*
G02*
X128835999Y-112922000I249999J0D01*
G01*
X129736001Y-112922000D01*
G75*
G02*
X129986000Y-113171999I0J-249999D01*
G01*
X129986000Y-113872001D01*
G75*
G02*
X129736001Y-114122000I-249999J0D01*
G01*
G37*
G36*
G01*
X129736001Y-112122000D02*
X128835999Y-112122000D01*
G75*
G02*
X128586000Y-111872001I0J249999D01*
G01*
X128586000Y-111171999D01*
G75*
G02*
X128835999Y-110922000I249999J0D01*
G01*
X129736001Y-110922000D01*
G75*
G02*
X129986000Y-111171999I0J-249999D01*
G01*
X129986000Y-111872001D01*
G75*
G02*
X129736001Y-112122000I-249999J0D01*
G01*
G37*
%TD*%
%TO.C,R22*%
G36*
G01*
X135750078Y-90262059D02*
X135113680Y-89625661D01*
G75*
G02*
X135113680Y-89272109I176776J176776D01*
G01*
X135608656Y-88777133D01*
G75*
G02*
X135962208Y-88777133I176776J-176776D01*
G01*
X136598606Y-89413531D01*
G75*
G02*
X136598606Y-89767083I-176776J-176776D01*
G01*
X136103630Y-90262059D01*
G75*
G02*
X135750078Y-90262059I-176776J176776D01*
G01*
G37*
G36*
G01*
X134335864Y-91676273D02*
X133699466Y-91039875D01*
G75*
G02*
X133699466Y-90686323I176776J176776D01*
G01*
X134194442Y-90191347D01*
G75*
G02*
X134547994Y-90191347I176776J-176776D01*
G01*
X135184392Y-90827745D01*
G75*
G02*
X135184392Y-91181297I-176776J-176776D01*
G01*
X134689416Y-91676273D01*
G75*
G02*
X134335864Y-91676273I-176776J176776D01*
G01*
G37*
%TD*%
%TO.C,R23*%
G36*
G01*
X155118000Y-81476001D02*
X155118000Y-80575999D01*
G75*
G02*
X155367999Y-80326000I249999J0D01*
G01*
X156068001Y-80326000D01*
G75*
G02*
X156318000Y-80575999I0J-249999D01*
G01*
X156318000Y-81476001D01*
G75*
G02*
X156068001Y-81726000I-249999J0D01*
G01*
X155367999Y-81726000D01*
G75*
G02*
X155118000Y-81476001I0J249999D01*
G01*
G37*
G36*
G01*
X157118000Y-81476001D02*
X157118000Y-80575999D01*
G75*
G02*
X157367999Y-80326000I249999J0D01*
G01*
X158068001Y-80326000D01*
G75*
G02*
X158318000Y-80575999I0J-249999D01*
G01*
X158318000Y-81476001D01*
G75*
G02*
X158068001Y-81726000I-249999J0D01*
G01*
X157367999Y-81726000D01*
G75*
G02*
X157118000Y-81476001I0J249999D01*
G01*
G37*
%TD*%
%TO.C,R24*%
G36*
G01*
X178016931Y-85967568D02*
X178653329Y-85331170D01*
G75*
G02*
X179006881Y-85331170I176776J-176776D01*
G01*
X179501857Y-85826146D01*
G75*
G02*
X179501857Y-86179698I-176776J-176776D01*
G01*
X178865459Y-86816096D01*
G75*
G02*
X178511907Y-86816096I-176776J176776D01*
G01*
X178016931Y-86321120D01*
G75*
G02*
X178016931Y-85967568I176776J176776D01*
G01*
G37*
G36*
G01*
X179431145Y-87381782D02*
X180067543Y-86745384D01*
G75*
G02*
X180421095Y-86745384I176776J-176776D01*
G01*
X180916071Y-87240360D01*
G75*
G02*
X180916071Y-87593912I-176776J-176776D01*
G01*
X180279673Y-88230310D01*
G75*
G02*
X179926121Y-88230310I-176776J176776D01*
G01*
X179431145Y-87735334D01*
G75*
G02*
X179431145Y-87381782I176776J176776D01*
G01*
G37*
%TD*%
M02*
