M48
; DRILL file {KiCad (5.1.9)-1} date 04/10/25 23:31:54
; FORMAT={-:-/ absolute / inch / decimal}
; #@! TF.CreationDate,2025-04-10T23:31:54-06:00
; #@! TF.GenerationSoftware,Kicad,Pcbnew,(5.1.9)-1
; #@! TF.FileFunction,Plated,1,2,PTH
FMAT,2
INCH
T1C0.0157
T2C0.0354
%
G90
G05
T1
X5.06Y-4.27
X5.12Y-4.26
X5.32Y-5.18
X5.36Y-4.27
X5.36Y-5.14
X5.42Y-3.41
X5.42Y-4.26
X5.46Y-3.46
X5.53Y-4.97
X5.57Y-4.93
X5.63Y-3.62
X5.67Y-3.67
X5.67Y-4.27
X5.72Y-4.26
X5.74Y-4.76
X5.78Y-4.71
X5.85Y-3.84
X5.88Y-3.88
X6.16Y-5.25
X6.17Y-4.89
X6.17Y-4.95
X6.17Y-5.19
X6.17Y-5.48
X6.17Y-5.55
X6.33Y-3.46
X6.33Y-3.52
X6.33Y-3.76
X6.33Y-3.82
X6.34Y-3.16
X6.34Y-3.22
X6.61Y-4.81
X6.65Y-4.85
X6.74Y-3.98
X6.78Y-3.94
X6.78Y-4.43
X6.82Y-5.02
X6.84Y-4.43
X6.86Y-5.06
X6.95Y-3.77
X6.99Y-3.72
X7.03Y-5.24
X7.08Y-4.43
X7.08Y-5.28
X7.14Y-4.43
X7.16Y-3.56
X7.21Y-3.51
X7.38Y-4.43
X7.44Y-4.43
T2
X5.215Y-4.215
X5.215Y-4.315
X5.3928Y-5.0366
X5.4635Y-5.1073
X5.4905Y-3.5593
X5.515Y-4.215
X5.515Y-4.315
X5.5612Y-3.4886
X5.605Y-4.8244
X5.6757Y-4.8951
X5.7027Y-3.7714
X5.7734Y-3.7007
X5.815Y-4.215
X5.815Y-4.315
X5.8171Y-4.6123
X5.8878Y-4.683
X5.9148Y-3.9836
X5.9855Y-3.9129
X6.115Y-4.795
X6.115Y-5.095
X6.115Y-5.395
X6.215Y-4.795
X6.215Y-5.095
X6.215Y-5.395
X6.285Y-3.315
X6.285Y-3.615
X6.285Y-3.915
X6.385Y-3.315
X6.385Y-3.615
X6.385Y-3.915
X6.5065Y-4.7807
X6.5772Y-4.71
X6.6343Y-4.0105
X6.685Y-4.385
X6.685Y-4.485
X6.705Y-4.0812
X6.7186Y-4.9928
X6.7893Y-4.9221
X6.8464Y-3.7984
X6.9171Y-3.8691
X6.9308Y-5.2049
X6.985Y-4.385
X6.985Y-4.485
X7.0015Y-5.1342
X7.0585Y-3.5863
X7.1292Y-3.657
X7.285Y-4.385
X7.285Y-4.485
T0
M30
