%TF.GenerationSoftware,KiCad,Pcbnew,(5.1.9)-1*%
%TF.CreationDate,2025-04-10T23:46:23-06:00*%
%TF.ProjectId,LEDS,4c454453-2e6b-4696-9361-645f70636258,rev?*%
%TF.SameCoordinates,Original*%
%TF.FileFunction,Legend,Top*%
%TF.FilePolarity,Positive*%
%FSLAX46Y46*%
G04 Gerber Fmt 4.6, Leading zero omitted, Abs format (unit mm)*
G04 Created by KiCad (PCBNEW (5.1.9)-1) date 2025-04-10 23:46:23*
%MOMM*%
%LPD*%
G01*
G04 APERTURE LIST*
%ADD10C,0.120000*%
G04 APERTURE END LIST*
D10*
%TO.C,D1*%
X170879000Y-114209000D02*
X171035000Y-114209000D01*
X168563000Y-114209000D02*
X168719000Y-114209000D01*
X168720392Y-110976665D02*
G75*
G03*
X168563484Y-114209000I1078608J-1672335D01*
G01*
X170877608Y-110976665D02*
G75*
G02*
X171034516Y-114209000I-1078608J-1672335D01*
G01*
X168719163Y-111607870D02*
G75*
G03*
X168719000Y-113689961I1079837J-1041130D01*
G01*
X170878837Y-111607870D02*
G75*
G02*
X170879000Y-113689961I-1079837J-1041130D01*
G01*
%TO.C,D2*%
X165823636Y-122398019D02*
X165933945Y-122508328D01*
X164185977Y-120760360D02*
X164296286Y-120870669D01*
X166582876Y-118586045D02*
G75*
G03*
X164186319Y-120760702I-419828J-1945212D01*
G01*
X168108260Y-120111429D02*
G75*
G02*
X165933603Y-122507986I-1945212J-419828D01*
G01*
X166135677Y-119031507D02*
G75*
G03*
X164663302Y-120503653I27371J-1499750D01*
G01*
X167662798Y-120558628D02*
G75*
G02*
X166190652Y-122031003I-1499750J27371D01*
G01*
%TO.C,D3*%
X155031000Y-122873000D02*
X155031000Y-123029000D01*
X155031000Y-120557000D02*
X155031000Y-120713000D01*
X158263335Y-120714392D02*
G75*
G03*
X155031000Y-120557484I-1672335J-1078608D01*
G01*
X158263335Y-122871608D02*
G75*
G02*
X155031000Y-123028516I-1672335J1078608D01*
G01*
X157632130Y-120713163D02*
G75*
G03*
X155550039Y-120713000I-1041130J-1079837D01*
G01*
X157632130Y-122872837D02*
G75*
G02*
X155550039Y-122873000I-1041130J1079837D01*
G01*
%TO.C,D4*%
X148423344Y-116073181D02*
X148313035Y-116183490D01*
X146785685Y-117710840D02*
X146675376Y-117821149D01*
X148625076Y-119550002D02*
G75*
G02*
X147152701Y-118077856I27371J1499750D01*
G01*
X150152197Y-118022881D02*
G75*
G03*
X148680051Y-116550506I-1499750J-27371D01*
G01*
X149072275Y-119995464D02*
G75*
G02*
X146675718Y-117820807I-419828J1945212D01*
G01*
X150597659Y-118470080D02*
G75*
G03*
X148423002Y-116073523I-1945212J419828D01*
G01*
%TO.C,D5*%
X148937000Y-106771000D02*
X148781000Y-106771000D01*
X146621000Y-106771000D02*
X146465000Y-106771000D01*
X146621163Y-109372130D02*
G75*
G02*
X146621000Y-107290039I1079837J1041130D01*
G01*
X148780837Y-109372130D02*
G75*
G03*
X148781000Y-107290039I-1079837J1041130D01*
G01*
X146622392Y-110003335D02*
G75*
G02*
X146465484Y-106771000I1078608J1672335D01*
G01*
X148779608Y-110003335D02*
G75*
G03*
X148936516Y-106771000I-1078608J1672335D01*
G01*
%TO.C,D6*%
X151473303Y-98417828D02*
X151362994Y-98307519D01*
X153110962Y-100055487D02*
X153000653Y-99945178D01*
X150714063Y-102229802D02*
G75*
G03*
X153110620Y-100055145I419828J1945212D01*
G01*
X149188679Y-100704418D02*
G75*
G02*
X151363336Y-98307861I1945212J419828D01*
G01*
X151161262Y-101784340D02*
G75*
G03*
X152633637Y-100312194I-27371J1499750D01*
G01*
X149634141Y-100257219D02*
G75*
G02*
X151106287Y-98784844I1499750J-27371D01*
G01*
%TO.C,D7*%
X162469000Y-98361000D02*
X162469000Y-98205000D01*
X162469000Y-100677000D02*
X162469000Y-100521000D01*
X159236665Y-100519608D02*
G75*
G03*
X162469000Y-100676516I1672335J1078608D01*
G01*
X159236665Y-98362392D02*
G75*
G02*
X162469000Y-98205484I1672335J-1078608D01*
G01*
X159867870Y-100520837D02*
G75*
G03*
X161949961Y-100521000I1041130J1079837D01*
G01*
X159867870Y-98361163D02*
G75*
G02*
X161949961Y-98361000I1041130J-1079837D01*
G01*
%TO.C,D8*%
X169637717Y-104742666D02*
X169748026Y-104632357D01*
X171275376Y-103105007D02*
X171385685Y-102994698D01*
X169435985Y-101265845D02*
G75*
G02*
X170908360Y-102737991I-27371J-1499750D01*
G01*
X167908864Y-102792966D02*
G75*
G03*
X169381010Y-104265341I1499750J27371D01*
G01*
X168988786Y-100820383D02*
G75*
G02*
X171385343Y-102995040I419828J-1945212D01*
G01*
X167463402Y-102345767D02*
G75*
G03*
X169638059Y-104742324I1945212J-419828D01*
G01*
%TO.C,D9*%
X174824000Y-114499000D02*
X173824000Y-114499000D01*
X174824000Y-111899000D02*
X174824000Y-114499000D01*
X171124000Y-114499000D02*
X172124000Y-114499000D01*
X171124000Y-111899000D02*
X171124000Y-114499000D01*
%TO.C,D10*%
X167630295Y-120937843D02*
X165791817Y-122776321D01*
X165791817Y-122776321D02*
X166498924Y-123483428D01*
X170246590Y-123554138D02*
X168408112Y-125392616D01*
X168408112Y-125392616D02*
X167701005Y-124685509D01*
%TO.C,D11*%
X157341000Y-123118000D02*
X154741000Y-123118000D01*
X154741000Y-123118000D02*
X154741000Y-124118000D01*
X157341000Y-126818000D02*
X154741000Y-126818000D01*
X154741000Y-126818000D02*
X154741000Y-125818000D01*
%TO.C,D12*%
X148245861Y-119517498D02*
X146407383Y-117679020D01*
X146407383Y-117679020D02*
X145700276Y-118386127D01*
X145629566Y-122133793D02*
X143791088Y-120295315D01*
X143791088Y-120295315D02*
X144498195Y-119588208D01*
%TO.C,D13*%
X142676000Y-106481000D02*
X143676000Y-106481000D01*
X142676000Y-109081000D02*
X142676000Y-106481000D01*
X146376000Y-106481000D02*
X145376000Y-106481000D01*
X146376000Y-109081000D02*
X146376000Y-106481000D01*
%TO.C,D14*%
X148888828Y-95423231D02*
X149595935Y-96130338D01*
X147050350Y-97261709D02*
X148888828Y-95423231D01*
X151505123Y-98039526D02*
X150798016Y-97332419D01*
X149666645Y-99878004D02*
X151505123Y-98039526D01*
%TO.C,D15*%
X162759000Y-94416000D02*
X162759000Y-95416000D01*
X160159000Y-94416000D02*
X162759000Y-94416000D01*
X162759000Y-98116000D02*
X162759000Y-97116000D01*
X160159000Y-98116000D02*
X162759000Y-98116000D01*
%TO.C,D16*%
X169815200Y-101298348D02*
X171653678Y-103136826D01*
X171653678Y-103136826D02*
X172360785Y-102429719D01*
X172431495Y-98682053D02*
X174269973Y-100520531D01*
X174269973Y-100520531D02*
X173562866Y-101227638D01*
%TO.C,D17*%
X176183000Y-114209000D02*
X176339000Y-114209000D01*
X178499000Y-114209000D02*
X178655000Y-114209000D01*
X178498837Y-111607870D02*
G75*
G02*
X178499000Y-113689961I-1079837J-1041130D01*
G01*
X176339163Y-111607870D02*
G75*
G03*
X176339000Y-113689961I1079837J-1041130D01*
G01*
X178497608Y-110976665D02*
G75*
G02*
X178654516Y-114209000I-1078608J-1672335D01*
G01*
X176340392Y-110976665D02*
G75*
G03*
X176183484Y-114209000I1078608J-1672335D01*
G01*
%TO.C,D18*%
X171211790Y-127786172D02*
X171322099Y-127896481D01*
X169574131Y-126148513D02*
X169684440Y-126258822D01*
X171971030Y-123974198D02*
G75*
G03*
X169574473Y-126148855I-419828J-1945212D01*
G01*
X173496414Y-125499582D02*
G75*
G02*
X171321757Y-127896139I-1945212J-419828D01*
G01*
X171523831Y-124419660D02*
G75*
G03*
X170051456Y-125891806I27371J-1499750D01*
G01*
X173050952Y-125946781D02*
G75*
G02*
X171578806Y-127419156I-1499750J27371D01*
G01*
%TO.C,D19*%
X155031000Y-130493000D02*
X155031000Y-130649000D01*
X155031000Y-128177000D02*
X155031000Y-128333000D01*
X158263335Y-128334392D02*
G75*
G03*
X155031000Y-128177484I-1672335J-1078608D01*
G01*
X158263335Y-130491608D02*
G75*
G02*
X155031000Y-130648516I-1672335J1078608D01*
G01*
X157632130Y-128333163D02*
G75*
G03*
X155550039Y-128333000I-1041130J-1079837D01*
G01*
X157632130Y-130492837D02*
G75*
G02*
X155550039Y-130493000I-1041130J1079837D01*
G01*
%TO.C,D20*%
X143035190Y-121461334D02*
X142924881Y-121571643D01*
X141397531Y-123098993D02*
X141287222Y-123209302D01*
X143236922Y-124938155D02*
G75*
G02*
X141764547Y-123466009I27371J1499750D01*
G01*
X144764043Y-123411034D02*
G75*
G03*
X143291897Y-121938659I-1499750J-27371D01*
G01*
X143684121Y-125383617D02*
G75*
G02*
X141287564Y-123208960I-419828J1945212D01*
G01*
X145209505Y-123858233D02*
G75*
G03*
X143034848Y-121461676I-1945212J419828D01*
G01*
%TO.C,D21*%
X139001000Y-106771000D02*
X138845000Y-106771000D01*
X141317000Y-106771000D02*
X141161000Y-106771000D01*
X141159608Y-110003335D02*
G75*
G03*
X141316516Y-106771000I-1078608J1672335D01*
G01*
X139002392Y-110003335D02*
G75*
G02*
X138845484Y-106771000I1078608J1672335D01*
G01*
X141160837Y-109372130D02*
G75*
G03*
X141161000Y-107290039I-1079837J1041130D01*
G01*
X139001163Y-109372130D02*
G75*
G02*
X139001000Y-107290039I1079837J1041130D01*
G01*
%TO.C,D22*%
X146085150Y-93029674D02*
X145974841Y-92919365D01*
X147722809Y-94667333D02*
X147612500Y-94557024D01*
X145325910Y-96841648D02*
G75*
G03*
X147722467Y-94666991I419828J1945212D01*
G01*
X143800526Y-95316264D02*
G75*
G02*
X145975183Y-92919707I1945212J419828D01*
G01*
X145773109Y-96396186D02*
G75*
G03*
X147245484Y-94924040I-27371J1499750D01*
G01*
X144245988Y-94869065D02*
G75*
G02*
X145718134Y-93396690I1499750J-27371D01*
G01*
%TO.C,D23*%
X162469000Y-90741000D02*
X162469000Y-90585000D01*
X162469000Y-93057000D02*
X162469000Y-92901000D01*
X159236665Y-92899608D02*
G75*
G03*
X162469000Y-93056516I1672335J1078608D01*
G01*
X159236665Y-90742392D02*
G75*
G02*
X162469000Y-90585484I1672335J-1078608D01*
G01*
X159867870Y-92900837D02*
G75*
G03*
X161949961Y-92901000I1041130J1079837D01*
G01*
X159867870Y-90741163D02*
G75*
G02*
X161949961Y-90741000I1041130J-1079837D01*
G01*
%TO.C,D24*%
X175025870Y-99354512D02*
X175136179Y-99244203D01*
X176663529Y-97716853D02*
X176773838Y-97606544D01*
X174824138Y-95877691D02*
G75*
G02*
X176296513Y-97349837I-27371J-1499750D01*
G01*
X173297017Y-97404812D02*
G75*
G03*
X174769163Y-98877187I1499750J27371D01*
G01*
X174376939Y-95432229D02*
G75*
G02*
X176773496Y-97606886I419828J-1945212D01*
G01*
X172851555Y-96957613D02*
G75*
G03*
X175026212Y-99354170I1945212J-419828D01*
G01*
%TO.C,D25*%
X178744000Y-111899000D02*
X178744000Y-114499000D01*
X178744000Y-114499000D02*
X179744000Y-114499000D01*
X182444000Y-111899000D02*
X182444000Y-114499000D01*
X182444000Y-114499000D02*
X181444000Y-114499000D01*
%TO.C,D26*%
X173796265Y-130780770D02*
X173089158Y-130073663D01*
X175634743Y-128942292D02*
X173796265Y-130780770D01*
X171179970Y-128164475D02*
X171887077Y-128871582D01*
X173018448Y-126325997D02*
X171179970Y-128164475D01*
%TO.C,D27*%
X154741000Y-134438000D02*
X154741000Y-133438000D01*
X157341000Y-134438000D02*
X154741000Y-134438000D01*
X154741000Y-130738000D02*
X154741000Y-131738000D01*
X157341000Y-130738000D02*
X154741000Y-130738000D01*
%TO.C,D28*%
X142857707Y-124905652D02*
X141019229Y-123067174D01*
X141019229Y-123067174D02*
X140312122Y-123774281D01*
X140241412Y-127521947D02*
X138402934Y-125683469D01*
X138402934Y-125683469D02*
X139110041Y-124976362D01*
%TO.C,D29*%
X135056000Y-106481000D02*
X136056000Y-106481000D01*
X135056000Y-109081000D02*
X135056000Y-106481000D01*
X138756000Y-106481000D02*
X137756000Y-106481000D01*
X138756000Y-109081000D02*
X138756000Y-106481000D01*
%TO.C,D30*%
X143500674Y-90035077D02*
X144207781Y-90742184D01*
X141662196Y-91873555D02*
X143500674Y-90035077D01*
X146116969Y-92651372D02*
X145409862Y-91944265D01*
X144278491Y-94489850D02*
X146116969Y-92651372D01*
%TO.C,D31*%
X160159000Y-90496000D02*
X162759000Y-90496000D01*
X162759000Y-90496000D02*
X162759000Y-89496000D01*
X160159000Y-86796000D02*
X162759000Y-86796000D01*
X162759000Y-86796000D02*
X162759000Y-87796000D01*
%TO.C,D32*%
X179658127Y-95132378D02*
X178951020Y-95839485D01*
X177819649Y-93293900D02*
X179658127Y-95132378D01*
X177041832Y-97748673D02*
X177748939Y-97041566D01*
X175203354Y-95910195D02*
X177041832Y-97748673D01*
%TO.C,D33*%
X183803000Y-114209000D02*
X183959000Y-114209000D01*
X186119000Y-114209000D02*
X186275000Y-114209000D01*
X186118837Y-111607870D02*
G75*
G02*
X186119000Y-113689961I-1079837J-1041130D01*
G01*
X183959163Y-111607870D02*
G75*
G03*
X183959000Y-113689961I1079837J-1041130D01*
G01*
X186117608Y-110976665D02*
G75*
G02*
X186274516Y-114209000I-1078608J-1672335D01*
G01*
X183960392Y-110976665D02*
G75*
G03*
X183803484Y-114209000I1078608J-1672335D01*
G01*
%TO.C,D34*%
X176599943Y-133174326D02*
X176710252Y-133284635D01*
X174962284Y-131536667D02*
X175072593Y-131646976D01*
X177359183Y-129362352D02*
G75*
G03*
X174962626Y-131537009I-419828J-1945212D01*
G01*
X178884567Y-130887736D02*
G75*
G02*
X176709910Y-133284293I-1945212J-419828D01*
G01*
X176911984Y-129807814D02*
G75*
G03*
X175439609Y-131279960I27371J-1499750D01*
G01*
X178439105Y-131334935D02*
G75*
G02*
X176966959Y-132807310I-1499750J27371D01*
G01*
%TO.C,D35*%
X155031000Y-135797000D02*
X155031000Y-135953000D01*
X155031000Y-138113000D02*
X155031000Y-138269000D01*
X157632130Y-138112837D02*
G75*
G02*
X155550039Y-138113000I-1041130J1079837D01*
G01*
X157632130Y-135953163D02*
G75*
G03*
X155550039Y-135953000I-1041130J-1079837D01*
G01*
X158263335Y-138111608D02*
G75*
G02*
X155031000Y-138268516I-1672335J1078608D01*
G01*
X158263335Y-135954392D02*
G75*
G03*
X155031000Y-135797484I-1672335J-1078608D01*
G01*
%TO.C,D36*%
X136009378Y-128487147D02*
X135899069Y-128597456D01*
X137647037Y-126849488D02*
X137536728Y-126959797D01*
X139821352Y-129246387D02*
G75*
G03*
X137646695Y-126849830I-1945212J419828D01*
G01*
X138295968Y-130771771D02*
G75*
G02*
X135899411Y-128597114I-419828J1945212D01*
G01*
X139375890Y-128799188D02*
G75*
G03*
X137903744Y-127326813I-1499750J-27371D01*
G01*
X137848769Y-130326309D02*
G75*
G02*
X136376394Y-128854163I27371J1499750D01*
G01*
%TO.C,D37*%
X133697000Y-106771000D02*
X133541000Y-106771000D01*
X131381000Y-106771000D02*
X131225000Y-106771000D01*
X131381163Y-109372130D02*
G75*
G02*
X131381000Y-107290039I1079837J1041130D01*
G01*
X133540837Y-109372130D02*
G75*
G03*
X133541000Y-107290039I-1079837J1041130D01*
G01*
X131382392Y-110003335D02*
G75*
G02*
X131225484Y-106771000I1078608J1672335D01*
G01*
X133539608Y-110003335D02*
G75*
G03*
X133696516Y-106771000I-1078608J1672335D01*
G01*
%TO.C,D38*%
X142334655Y-89279180D02*
X142224346Y-89168871D01*
X140696996Y-87641521D02*
X140586687Y-87531212D01*
X138857834Y-89480912D02*
G75*
G02*
X140329980Y-88008537I1499750J-27371D01*
G01*
X140384955Y-91008033D02*
G75*
G03*
X141857330Y-89535887I-27371J1499750D01*
G01*
X138412372Y-89928111D02*
G75*
G02*
X140587029Y-87531554I1945212J419828D01*
G01*
X139937756Y-91453495D02*
G75*
G03*
X142334313Y-89278838I419828J1945212D01*
G01*
%TO.C,D39*%
X162469000Y-85437000D02*
X162469000Y-85281000D01*
X162469000Y-83121000D02*
X162469000Y-82965000D01*
X159867870Y-83121163D02*
G75*
G02*
X161949961Y-83121000I1041130J-1079837D01*
G01*
X159867870Y-85280837D02*
G75*
G03*
X161949961Y-85281000I1041130J1079837D01*
G01*
X159236665Y-83122392D02*
G75*
G02*
X162469000Y-82965484I1672335J-1078608D01*
G01*
X159236665Y-85279608D02*
G75*
G03*
X162469000Y-85436516I1672335J1078608D01*
G01*
%TO.C,D40*%
X180414024Y-93966359D02*
X180524333Y-93856050D01*
X182051683Y-92328700D02*
X182161992Y-92218391D01*
X180212292Y-90489538D02*
G75*
G02*
X181684667Y-91961684I-27371J-1499750D01*
G01*
X178685171Y-92016659D02*
G75*
G03*
X180157317Y-93489034I1499750J27371D01*
G01*
X179765093Y-90044076D02*
G75*
G02*
X182161650Y-92218733I419828J-1945212D01*
G01*
X178239709Y-91569460D02*
G75*
G03*
X180414366Y-93966017I1945212J-419828D01*
G01*
%TO.C,D41*%
X186364000Y-111899000D02*
X186364000Y-114499000D01*
X186364000Y-114499000D02*
X187364000Y-114499000D01*
X190064000Y-111899000D02*
X190064000Y-114499000D01*
X190064000Y-114499000D02*
X189064000Y-114499000D01*
%TO.C,D42*%
X179186540Y-136166802D02*
X178479433Y-135459695D01*
X181025018Y-134328324D02*
X179186540Y-136166802D01*
X176570245Y-133550507D02*
X177277352Y-134257614D01*
X178408723Y-131712029D02*
X176570245Y-133550507D01*
%TO.C,D43*%
X157344000Y-138358000D02*
X154744000Y-138358000D01*
X154744000Y-138358000D02*
X154744000Y-139358000D01*
X157344000Y-142058000D02*
X154744000Y-142058000D01*
X154744000Y-142058000D02*
X154744000Y-141058000D01*
%TO.C,D44*%
X137467432Y-130291684D02*
X135628954Y-128453206D01*
X135628954Y-128453206D02*
X134921847Y-129160313D01*
X134851137Y-132907979D02*
X133012659Y-131069501D01*
X133012659Y-131069501D02*
X133719766Y-130362394D01*
%TO.C,D45*%
X131136000Y-109078000D02*
X131136000Y-106478000D01*
X131136000Y-106478000D02*
X130136000Y-106478000D01*
X127436000Y-109078000D02*
X127436000Y-106478000D01*
X127436000Y-106478000D02*
X128436000Y-106478000D01*
%TO.C,D46*%
X138114642Y-84644802D02*
X138821749Y-85351909D01*
X136276164Y-86483280D02*
X138114642Y-84644802D01*
X140730937Y-87261097D02*
X140023830Y-86553990D01*
X138892459Y-89099575D02*
X140730937Y-87261097D01*
%TO.C,D47*%
X160286000Y-82876000D02*
X162886000Y-82876000D01*
X162886000Y-82876000D02*
X162886000Y-81876000D01*
X160286000Y-79176000D02*
X162886000Y-79176000D01*
X162886000Y-79176000D02*
X162886000Y-80176000D01*
%TO.C,D48*%
X185046280Y-89744224D02*
X184339173Y-90451331D01*
X183207802Y-87905746D02*
X185046280Y-89744224D01*
X182429985Y-92360519D02*
X183137092Y-91653412D01*
X180591507Y-90522041D02*
X182429985Y-92360519D01*
%TO.C,JP1*%
X168799000Y-109604000D02*
X168799000Y-106804000D01*
X168799000Y-106804000D02*
X170799000Y-106804000D01*
X170799000Y-106804000D02*
X170799000Y-109604000D01*
X170799000Y-109604000D02*
X168799000Y-109604000D01*
%TO.C,JP2*%
X169023294Y-119085223D02*
X167609081Y-117671010D01*
X171003193Y-117105324D02*
X169023294Y-119085223D01*
X169588980Y-115691111D02*
X171003193Y-117105324D01*
X167609081Y-117671010D02*
X169588980Y-115691111D01*
%TO.C,JP3*%
X159640999Y-120793000D02*
X162440999Y-120793000D01*
X162440999Y-120793000D02*
X162440999Y-122793000D01*
X162440999Y-122793000D02*
X159640999Y-122793000D01*
X159640999Y-122793000D02*
X159640999Y-120793000D01*
%TO.C,JP4*%
X150098480Y-120910498D02*
X151512693Y-119496285D01*
X152078379Y-122890397D02*
X150098480Y-120910498D01*
X153492592Y-121476184D02*
X152078379Y-122890397D01*
X151512693Y-119496285D02*
X153492592Y-121476184D01*
%TO.C,JP5*%
X148701000Y-111376000D02*
X148701000Y-114176000D01*
X148701000Y-114176000D02*
X146701000Y-114176000D01*
X146701000Y-114176000D02*
X146701000Y-111376000D01*
X146701000Y-111376000D02*
X148701000Y-111376000D01*
%TO.C,JP6*%
X148273645Y-101730623D02*
X149687858Y-103144836D01*
X146293746Y-103710522D02*
X148273645Y-101730623D01*
X147707959Y-105124735D02*
X146293746Y-103710522D01*
X149687858Y-103144836D02*
X147707959Y-105124735D01*
%TO.C,JP7*%
X157879000Y-98441000D02*
X157879000Y-100441000D01*
X155079000Y-98441000D02*
X157879000Y-98441000D01*
X155079000Y-100441000D02*
X155079000Y-98441000D01*
X157879000Y-100441000D02*
X155079000Y-100441000D01*
%TO.C,JP8*%
X166558974Y-101330168D02*
X164579075Y-99350269D01*
X164579075Y-99350269D02*
X165993288Y-97936056D01*
X165993288Y-97936056D02*
X167973187Y-99915955D01*
X167973187Y-99915955D02*
X166558974Y-101330168D01*
%TO.C,JP9*%
X178419000Y-109604000D02*
X176419000Y-109604000D01*
X178419000Y-106804000D02*
X178419000Y-109604000D01*
X176419000Y-106804000D02*
X178419000Y-106804000D01*
X176419000Y-109604000D02*
X176419000Y-106804000D01*
%TO.C,JP10*%
X172907432Y-122969362D02*
X174887331Y-120989463D01*
X174887331Y-120989463D02*
X176301544Y-122403676D01*
X176301544Y-122403676D02*
X174321645Y-124383575D01*
X174321645Y-124383575D02*
X172907432Y-122969362D01*
%TO.C,JP11*%
X159636000Y-130286000D02*
X159636000Y-128286000D01*
X162436000Y-130286000D02*
X159636000Y-130286000D01*
X162436000Y-128286000D02*
X162436000Y-130286000D01*
X159636000Y-128286000D02*
X162436000Y-128286000D01*
%TO.C,JP12*%
X146214342Y-124794636D02*
X148194241Y-126774535D01*
X148194241Y-126774535D02*
X146780028Y-128188748D01*
X146780028Y-128188748D02*
X144800129Y-126208849D01*
X144800129Y-126208849D02*
X146214342Y-124794636D01*
%TO.C,JP13*%
X139208000Y-111376000D02*
X141208000Y-111376000D01*
X139208000Y-114176000D02*
X139208000Y-111376000D01*
X141208000Y-114176000D02*
X139208000Y-114176000D01*
X141208000Y-111376000D02*
X141208000Y-114176000D01*
%TO.C,JP14*%
X144389507Y-97846485D02*
X142409608Y-99826384D01*
X142409608Y-99826384D02*
X140995395Y-98412171D01*
X140995395Y-98412171D02*
X142975294Y-96432272D01*
X142975294Y-96432272D02*
X144389507Y-97846485D01*
%TO.C,JP15*%
X157864000Y-92948000D02*
X155064000Y-92948000D01*
X155064000Y-92948000D02*
X155064000Y-90948000D01*
X155064000Y-90948000D02*
X157864000Y-90948000D01*
X157864000Y-90948000D02*
X157864000Y-92948000D01*
%TO.C,JP16*%
X171846719Y-96021211D02*
X169866820Y-94041312D01*
X169866820Y-94041312D02*
X171281033Y-92627099D01*
X171281033Y-92627099D02*
X173260932Y-94606998D01*
X173260932Y-94606998D02*
X171846719Y-96021211D01*
%TO.C,JP17*%
X184039000Y-109619000D02*
X184039000Y-106819000D01*
X184039000Y-106819000D02*
X186039000Y-106819000D01*
X186039000Y-106819000D02*
X186039000Y-109619000D01*
X186039000Y-109619000D02*
X184039000Y-109619000D01*
%TO.C,JP18*%
X179709799Y-129771728D02*
X178295586Y-128357515D01*
X181689698Y-127791829D02*
X179709799Y-129771728D01*
X180275485Y-126377616D02*
X181689698Y-127791829D01*
X178295586Y-128357515D02*
X180275485Y-126377616D01*
%TO.C,JP19*%
X159636000Y-135906000D02*
X162436000Y-135906000D01*
X162436000Y-135906000D02*
X162436000Y-137906000D01*
X162436000Y-137906000D02*
X159636000Y-137906000D01*
X159636000Y-137906000D02*
X159636000Y-135906000D01*
%TO.C,JP20*%
X139411975Y-131597003D02*
X140826188Y-130182790D01*
X141391874Y-133576902D02*
X139411975Y-131597003D01*
X142806087Y-132162689D02*
X141391874Y-133576902D01*
X140826188Y-130182790D02*
X142806087Y-132162689D01*
%TO.C,JP21*%
X133588000Y-111376000D02*
X133588000Y-114176000D01*
X133588000Y-114176000D02*
X131588000Y-114176000D01*
X131588000Y-114176000D02*
X131588000Y-111376000D01*
X131588000Y-111376000D02*
X133588000Y-111376000D01*
%TO.C,JP22*%
X137587140Y-91044118D02*
X139001353Y-92458331D01*
X135607241Y-93024017D02*
X137587140Y-91044118D01*
X137021454Y-94438230D02*
X135607241Y-93024017D01*
X139001353Y-92458331D02*
X137021454Y-94438230D01*
%TO.C,JP23*%
X157864000Y-83328000D02*
X157864000Y-85328000D01*
X155064000Y-83328000D02*
X157864000Y-83328000D01*
X155064000Y-85328000D02*
X155064000Y-83328000D01*
X157864000Y-85328000D02*
X155064000Y-85328000D01*
%TO.C,JP24*%
X178649085Y-89218844D02*
X177234872Y-90633057D01*
X176669186Y-87238945D02*
X178649085Y-89218844D01*
X175254973Y-88653158D02*
X176669186Y-87238945D01*
X177234872Y-90633057D02*
X175254973Y-88653158D01*
%TO.C,R1*%
X173709000Y-108230936D02*
X173709000Y-108685064D01*
X172239000Y-108230936D02*
X172239000Y-108685064D01*
%TO.C,R2*%
X171012431Y-119132555D02*
X170691314Y-119453672D01*
X172051878Y-120172002D02*
X171730761Y-120493119D01*
%TO.C,R3*%
X161009064Y-125703000D02*
X160554936Y-125703000D01*
X161009064Y-124233000D02*
X160554936Y-124233000D01*
%TO.C,R4*%
X149011702Y-123939082D02*
X148690585Y-123617965D01*
X150051149Y-122899635D02*
X149730032Y-122578518D01*
%TO.C,R5*%
X145261000Y-112749064D02*
X145261000Y-112294936D01*
X143791000Y-112749064D02*
X143791000Y-112294936D01*
%TO.C,R6*%
X145245061Y-100643845D02*
X145566178Y-100322728D01*
X146284508Y-101683292D02*
X146605625Y-101362175D01*
%TO.C,R7*%
X156490936Y-97001000D02*
X156945064Y-97001000D01*
X156490936Y-95531000D02*
X156945064Y-95531000D01*
%TO.C,R8*%
X168009912Y-97916212D02*
X168331029Y-98237329D01*
X169049359Y-96876765D02*
X169370476Y-97197882D01*
%TO.C,R9*%
X181329000Y-108230936D02*
X181329000Y-108685064D01*
X179859000Y-108230936D02*
X179859000Y-108685064D01*
%TO.C,R10*%
X177440032Y-125560155D02*
X177118915Y-125881272D01*
X176400585Y-124520708D02*
X176079468Y-124841825D01*
%TO.C,R11*%
X161009064Y-133323000D02*
X160554936Y-133323000D01*
X161009064Y-131853000D02*
X160554936Y-131853000D01*
%TO.C,R12*%
X144662995Y-128287788D02*
X144341878Y-127966671D01*
X143623548Y-129327235D02*
X143302431Y-129006118D01*
%TO.C,R13*%
X136171000Y-112749064D02*
X136171000Y-112294936D01*
X137641000Y-112749064D02*
X137641000Y-112294936D01*
%TO.C,R14*%
X140896355Y-96295138D02*
X141217472Y-95974021D01*
X139856908Y-95255691D02*
X140178025Y-94934574D01*
%TO.C,R15*%
X156490936Y-89381000D02*
X156945064Y-89381000D01*
X156490936Y-87911000D02*
X156945064Y-87911000D01*
%TO.C,R16*%
X174437512Y-91488611D02*
X174758629Y-91809728D01*
X173398065Y-92528058D02*
X173719182Y-92849175D01*
%TO.C,R17*%
X188949000Y-108230936D02*
X188949000Y-108685064D01*
X187479000Y-108230936D02*
X187479000Y-108685064D01*
%TO.C,R18*%
X181788738Y-129908862D02*
X181467621Y-130229979D01*
X182828185Y-130948309D02*
X182507068Y-131269426D01*
%TO.C,R19*%
X161009064Y-140943000D02*
X160554936Y-140943000D01*
X161009064Y-139473000D02*
X160554936Y-139473000D01*
%TO.C,R20*%
X139274842Y-133675942D02*
X138953725Y-133354825D01*
X138235395Y-134715389D02*
X137914278Y-134394272D01*
%TO.C,R21*%
X130021000Y-112749064D02*
X130021000Y-112294936D01*
X128551000Y-112749064D02*
X128551000Y-112294936D01*
%TO.C,R22*%
X134468754Y-89867538D02*
X134789871Y-89546421D01*
X135508201Y-90906985D02*
X135829318Y-90585868D01*
%TO.C,R23*%
X156490936Y-81761000D02*
X156945064Y-81761000D01*
X156490936Y-80291000D02*
X156945064Y-80291000D01*
%TO.C,R24*%
X178786219Y-87139905D02*
X179107336Y-87461022D01*
X179825666Y-86100458D02*
X180146783Y-86421575D01*
%TO.C,TP1*%
X166842000Y-114808000D02*
G75*
G03*
X166842000Y-114808000I-2250000J0D01*
G01*
%TO.C,TP2*%
X166334000Y-104394000D02*
G75*
G03*
X166334000Y-104394000I-2250000J0D01*
G01*
%TD*%
M02*
